<svg xmlns="http://www.w3.org/2000/svg" width="430" height="190" viewBox="0 0 430 190" role="img" aria-labelledby="t d" font-family="'DejaVu Sans Mono','Liberation Mono','Courier New',monospace"><title id="t">GxP-Training-Bot — fixture card</title><desc id="d">GxP-Training-Bot: Django REST + React platform that turns pharma SOPs into role-specific quizzes via NVIDIA NIM (Llama 3.1), with a deterministic offline fallback, RBAC-gated endpoints, 21 CFR Part 11-style e-signatures/audit trail, and Leitner+FSRS adaptive retraining.. 1 stars, 0 forks, 6 of your commits, last pushed 2 days ago.</desc><style>@keyframes fx-flicker{0%,96%,100%{opacity:1}97%{opacity:.55}98%{opacity:.9}}@keyframes fx-pulse{0%,100%{opacity:.85}50%{opacity:1}}@keyframes fx-pop{0%{opacity:0;transform:scaleX(0)}100%{opacity:1;transform:scaleX(1)}}@keyframes fx-blink{0%,49%{opacity:1}50%,100%{opacity:.15}}@keyframes fx-rise{0%{opacity:0;transform:translateY(6px)}100%{opacity:1;transform:translateY(0)}}.fx-lamp{animation:fx-flicker 4s infinite}.fx-beam{animation:fx-pulse 6s ease-in-out infinite}.fx-live{animation:fx-blink 2s steps(1) infinite}.fx-title{animation:fx-rise .5s ease-out both}@media (prefers-reduced-motion:reduce){*{animation:none!important;transition:none!important}}</style><defs><path id="g77" d="M0 0h1v7h-1zM1 1h1v1h-1zM2 2h1v1h-1zM3 1h1v1h-1zM4 0h1v7h-1z"/><path id="g65" d="M0 1h1v6h-1zM1 0h1v1h-1zM1 4h1v1h-1zM2 0h1v1h-1zM2 4h1v1h-1zM3 0h1v1h-1zM3 4h1v1h-1zM4 1h1v6h-1z"/><path id="g84" d="M0 0h1v1h-1zM1 0h1v1h-1zM2 0h1v7h-1zM3 0h1v1h-1zM4 0h1v1h-1z"/><path id="g67" d="M0 1h1v5h-1zM1 0h1v1h-1zM1 6h1v1h-1zM2 0h1v1h-1zM2 6h1v1h-1zM3 0h1v1h-1zM3 6h1v1h-1zM4 1h1v1h-1zM4 5h1v1h-1z"/><path id="g72" d="M0 0h1v7h-1zM1 3h1v1h-1zM2 3h1v1h-1zM3 3h1v1h-1zM4 0h1v7h-1z"/><path id="g48" d="M0 1h1v5h-1zM1 0h1v1h-1zM1 4h1v1h-1zM1 6h1v1h-1zM2 0h1v1h-1zM2 3h1v1h-1zM2 6h1v1h-1zM3 0h1v1h-1zM3 2h1v1h-1zM3 6h1v1h-1zM4 1h1v5h-1z"/><path id="g51" d="M0 0h1v1h-1zM0 5h1v1h-1zM1 0h1v1h-1zM1 6h1v1h-1zM2 0h1v1h-1zM2 2h1v1h-1zM2 6h1v1h-1zM3 0h1v2h-1zM3 3h1v1h-1zM3 6h1v1h-1zM4 0h1v1h-1zM4 4h1v2h-1z"/><path id="g47" d="M0 5h1v1h-1zM1 4h1v1h-1zM2 3h1v1h-1zM3 2h1v1h-1zM4 1h1v1h-1z"/><path id="g52" d="M0 3h1v2h-1zM1 2h1v1h-1zM1 4h1v1h-1zM2 1h1v1h-1zM2 4h1v1h-1zM3 0h1v7h-1zM4 4h1v1h-1z"/><path id="g76" d="M0 0h1v7h-1zM1 6h1v1h-1zM2 6h1v1h-1zM3 6h1v1h-1zM4 6h1v1h-1z"/><path id="g73" d="M1 0h1v1h-1zM1 6h1v1h-1zM2 0h1v7h-1zM3 0h1v1h-1zM3 6h1v1h-1z"/><path id="g86" d="M0 0h1v5h-1zM1 5h1v1h-1zM2 6h1v1h-1zM3 5h1v1h-1zM4 0h1v5h-1z"/><path id="g69" d="M0 0h1v7h-1zM1 0h1v1h-1zM1 3h1v1h-1zM1 6h1v1h-1zM2 0h1v1h-1zM2 3h1v1h-1zM2 6h1v1h-1zM3 0h1v1h-1zM3 3h1v1h-1zM3 6h1v1h-1zM4 0h1v1h-1zM4 6h1v1h-1z"/><path id="g78" d="M0 0h1v7h-1zM1 2h1v1h-1zM2 3h1v1h-1zM3 4h1v1h-1zM4 0h1v7h-1z"/><path id="g79" d="M0 1h1v5h-1zM1 0h1v1h-1zM1 6h1v1h-1zM2 0h1v1h-1zM2 6h1v1h-1zM3 0h1v1h-1zM3 6h1v1h-1zM4 1h1v5h-1z"/><path id="g87" d="M0 0h1v7h-1zM1 5h1v1h-1zM2 3h1v2h-1zM3 5h1v1h-1zM4 0h1v7h-1z"/><path id="g71" d="M0 1h1v5h-1zM1 0h1v1h-1zM1 6h1v1h-1zM2 0h1v1h-1zM2 6h1v1h-1zM3 0h1v1h-1zM3 4h1v1h-1zM3 6h1v1h-1zM4 1h1v1h-1zM4 4h1v2h-1z"/><path id="g88" d="M0 0h1v2h-1zM0 5h1v2h-1zM1 2h1v1h-1zM1 4h1v1h-1zM2 3h1v1h-1zM3 2h1v1h-1zM3 4h1v1h-1zM4 0h1v2h-1zM4 5h1v2h-1z"/><path id="g80" d="M0 0h1v7h-1zM1 0h1v1h-1zM1 3h1v1h-1zM2 0h1v1h-1zM2 3h1v1h-1zM3 0h1v1h-1zM3 3h1v1h-1zM4 1h1v2h-1z"/><path id="g45" d="M0 3h1v1h-1zM1 3h1v1h-1zM2 3h1v1h-1zM3 3h1v1h-1zM4 3h1v1h-1z"/><path id="g82" d="M0 0h1v7h-1zM1 0h1v1h-1zM1 3h1v1h-1zM2 0h1v1h-1zM2 3h1v2h-1zM3 0h1v1h-1zM3 3h1v1h-1zM3 5h1v1h-1zM4 1h1v2h-1zM4 6h1v1h-1z"/><path id="g66" d="M0 0h1v7h-1zM1 0h1v1h-1zM1 3h1v1h-1zM1 6h1v1h-1zM2 0h1v1h-1zM2 3h1v1h-1zM2 6h1v1h-1zM3 0h1v1h-1zM3 3h1v1h-1zM3 6h1v1h-1zM4 1h1v2h-1zM4 4h1v2h-1z"/><path id="g54" d="M0 2h1v4h-1zM1 1h1v1h-1zM1 3h1v1h-1zM1 6h1v1h-1zM2 0h1v1h-1zM2 3h1v1h-1zM2 6h1v1h-1zM3 0h1v1h-1zM3 3h1v1h-1zM3 6h1v1h-1zM4 4h1v2h-1z"/><path id="g49" d="M1 1h1v1h-1zM1 6h1v1h-1zM2 0h1v7h-1zM3 6h1v1h-1z"/></defs><rect x="0" y="0" width="430" height="190" fill="#02060F" shape-rendering="crispEdges"/><polygon points="11,6 419,6 424,11 424,179 419,184 11,184 6,179 6,11" fill="#0D1E45" stroke="#1E3A78" stroke-width="2"/><polygon points="11,6 419,6 424,11 424,179 419,184 11,184 6,179 6,11" fill="none" stroke="#1B4FD8" stroke-width="1" opacity=".35" transform="translate(0,1)"/><rect x="18" y="18" width="394" height="20" fill="#12244F" shape-rendering="crispEdges"/><rect x="18" y="18" width="3" height="20" fill="#FF9933" shape-rendering="crispEdges"/><g transform="translate(28 24) scale(1.3)" fill="#8FA6D8" shape-rendering="crispEdges"><use href="#g77" x="0"/><use href="#g65" x="6"/><use href="#g84" x="12"/><use href="#g67" x="18"/><use href="#g72" x="24"/><use href="#g48" x="36"/><use href="#g51" x="42"/><use href="#g47" x="54"/><use href="#g48" x="66"/><use href="#g52" x="72"/></g><circle cx="330.9" cy="28" r="3.5" fill="#2ECC71" class="fx-live"/><g transform="translate(340.9 24) scale(1.3)" fill="#2ECC71" shape-rendering="crispEdges"><use href="#g76" x="0"/><use href="#g73" x="6"/><use href="#g86" x="12"/><use href="#g69" x="18"/><use href="#g78" x="30"/><use href="#g79" x="36"/><use href="#g87" x="42"/></g><g class="fx-title"><g transform="translate(18 50) scale(2.4)" fill="#F4F7FF" shape-rendering="crispEdges"><use href="#g71" x="0"/><use href="#g88" x="6"/><use href="#g80" x="12"/><use href="#g45" x="18"/><use href="#g84" x="24"/><use href="#g82" x="30"/><use href="#g65" x="36"/><use href="#g73" x="42"/><use href="#g78" x="48"/><use href="#g73" x="54"/><use href="#g78" x="60"/><use href="#g71" x="66"/><use href="#g45" x="72"/><use href="#g66" x="78"/><use href="#g79" x="84"/><use href="#g84" x="90"/></g></g><text x="18" y="76" font-size="10" fill="#8FA6D8" text-anchor="start" font-weight="400">Django REST + React platform that turns pharma SOPs</text><text x="18" y="89" font-size="10" fill="#8FA6D8" text-anchor="start" font-weight="400">into role-specific quizzes via NVIDIA NIM (Llama 3.…</text><rect x="18" y="104" width="84.8" height="14" fill="#12244F" shape-rendering="crispEdges"  stroke="#162E5F" stroke-width="1"/><text x="24" y="114" font-size="8" fill="#5AC8FA" text-anchor="start" font-weight="400">21-cfr-part-11</text><rect x="107.8" y="104" width="58.8" height="14" fill="#12244F" shape-rendering="crispEdges"  stroke="#162E5F" stroke-width="1"/><text x="113.8" y="114" font-size="8" fill="#5AC8FA" text-anchor="start" font-weight="400">audit-log</text><rect x="171.6" y="104" width="43.2" height="14" fill="#12244F" shape-rendering="crispEdges"  stroke="#162E5F" stroke-width="1"/><text x="177.6" y="114" font-size="8" fill="#5AC8FA" text-anchor="start" font-weight="400">celery</text><rect x="219.8" y="104" width="64" height="14" fill="#12244F" shape-rendering="crispEdges"  stroke="#162E5F" stroke-width="1"/><text x="225.8" y="114" font-size="8" fill="#5AC8FA" text-anchor="start" font-weight="400">compliance</text><rect x="18" y="124" width="394" height="2" fill="#1E3A78" shape-rendering="crispEdges"/><text x="18" y="140" font-size="8" fill="#5C74A8" text-anchor="start" font-weight="400" letter-spacing="1.4">RUNS</text><g transform="translate(18 145) scale(1.8)" fill="#F4F7FF" shape-rendering="crispEdges"><use href="#g54" x="0"/></g><text x="116.5" y="140" font-size="8" fill="#5C74A8" text-anchor="start" font-weight="400" letter-spacing="1.4">STARS</text><g transform="translate(116.5 145) scale(1.8)" fill="#FFC93C" shape-rendering="crispEdges"><use href="#g49" x="0"/></g><text x="215" y="140" font-size="8" fill="#5C74A8" text-anchor="start" font-weight="400" letter-spacing="1.4">FORKS</text><g transform="translate(215 145) scale(1.8)" fill="#5AC8FA" shape-rendering="crispEdges"><use href="#g48" x="0"/></g><text x="313.5" y="140" font-size="8" fill="#5C74A8" text-anchor="start" font-weight="400" letter-spacing="1.4">REL</text><g transform="translate(313.5 145) scale(1.8)" fill="#FF9933" shape-rendering="crispEdges"><use href="#g48" x="0"/></g><circle cx="22" cy="176" r="4" fill="#FF9933"/><text x="32" y="180" font-size="9" fill="#8FA6D8" text-anchor="start" font-weight="400">Python</text><text x="412" y="180" font-size="9" fill="#5C74A8" text-anchor="end" font-weight="400">LAST BALL 2D AGO</text></svg>