<svg xmlns="http://www.w3.org/2000/svg" width="880" height="320" viewBox="0 0 880 320" role="img" aria-labelledby="t d" font-family="'DejaVu Sans Mono','Liberation Mono','Courier New',monospace"><title id="t">SUHAS — floodlit stadium hero</title><desc id="d">Pixel-art night cricket stadium introducing SUHAS, AI/ML ENGINEER IN TRAINING. 309 career contributions.</desc><style>@keyframes h-flicker{0%,96%,100%{opacity:1}97%{opacity:.55}98%{opacity:.9}}@keyframes h-pulse{0%,100%{opacity:.85}50%{opacity:1}}@keyframes h-pop{0%{opacity:0;transform:scaleX(0)}100%{opacity:1;transform:scaleX(1)}}@keyframes h-blink{0%,49%{opacity:1}50%,100%{opacity:.15}}@keyframes h-rise{0%{opacity:0;transform:translateY(6px)}100%{opacity:1;transform:translateY(0)}}.h-lamp{animation:h-flicker 4s infinite}.h-beam{animation:h-pulse 6s ease-in-out infinite}@keyframes h-tw{0%,100%{opacity:.15}50%{opacity:.9}}.h-star{animation:h-tw 5s ease-in-out infinite}@keyframes h-sway{0%,100%{transform:translateY(0)}50%{transform:translateY(2px)}}.h-flag{animation:h-sway 2.4s ease-in-out infinite}.h-dot{animation:h-blink 1.6s steps(1) infinite}@keyframes h-in{0%{opacity:0;transform:translateY(-14px)}60%{opacity:1;transform:translateY(2px)}100%{opacity:1;transform:translateY(0)}}.h-title{animation:h-in 1s cubic-bezier(.2,.9,.3,1) both}.h-sub{animation:h-rise 1s ease-out .3s both}@keyframes h-wipe{0%{transform:scaleX(0)}100%{transform:scaleX(1)}}.h-rule{transform-box:fill-box;transform-origin:left center;animation:h-wipe .7s ease-out .6s both}@keyframes h-deliver{0%{transform:translate(632px,238px) scale(.7);opacity:0}8%{opacity:1}48%{transform:translate(300px,262px) scale(1);opacity:1}56%{transform:translate(250px,258px) scale(1);opacity:1}78%{transform:translate(700px,120px) scale(1.1);opacity:1}92%,100%{transform:translate(860px,60px) scale(1.2);opacity:0}}.h-ball{animation:h-deliver 4.2s cubic-bezier(.35,.1,.6,1) infinite}@keyframes h-swing{0%,44%{transform:rotate(-8deg)}56%{transform:rotate(48deg)}70%{transform:rotate(62deg)}100%{transform:rotate(-8deg)}}.h-bat{transform-box:fill-box;transform-origin:50% 12%;animation:h-swing 4.2s ease-in-out infinite}@keyframes h-leap{0%,100%{transform:translate(0,0)}40%{transform:translate(-10px,-6px)}55%{transform:translate(-4px,0)}}.h-bowler{animation:h-leap 4.2s ease-in-out infinite}@keyframes h-brace{0%,44%{transform:translateX(0)}58%{transform:translateX(-3px)}100%{transform:translateX(0)}}.h-batter{animation:h-brace 4.2s ease-in-out infinite}@media (prefers-reduced-motion:reduce){*{animation:none!important;transition:none!important}}</style><defs><path id="g84" d="M0 0h1v1h-1zM1 0h1v1h-1zM2 0h1v7h-1zM3 0h1v1h-1zM4 0h1v1h-1z"/><path id="g72" d="M0 0h1v7h-1zM1 3h1v1h-1zM2 3h1v1h-1zM3 3h1v1h-1zM4 0h1v7h-1z"/><path id="g69" d="M0 0h1v7h-1zM1 0h1v1h-1zM1 3h1v1h-1zM1 6h1v1h-1zM2 0h1v1h-1zM2 3h1v1h-1zM2 6h1v1h-1zM3 0h1v1h-1zM3 3h1v1h-1zM3 6h1v1h-1zM4 0h1v1h-1zM4 6h1v1h-1z"/><path id="g65" d="M0 1h1v6h-1zM1 0h1v1h-1zM1 4h1v1h-1zM2 0h1v1h-1zM2 4h1v1h-1zM3 0h1v1h-1zM3 4h1v1h-1zM4 1h1v6h-1z"/><path id="g78" d="M0 0h1v7h-1zM1 2h1v1h-1zM2 3h1v1h-1zM3 4h1v1h-1zM4 0h1v7h-1z"/><path id="g67" d="M0 1h1v5h-1zM1 0h1v1h-1zM1 6h1v1h-1zM2 0h1v1h-1zM2 6h1v1h-1zM3 0h1v1h-1zM3 6h1v1h-1zM4 1h1v1h-1zM4 5h1v1h-1z"/><path id="g79" d="M0 1h1v5h-1zM1 0h1v1h-1zM1 6h1v1h-1zM2 0h1v1h-1zM2 6h1v1h-1zM3 0h1v1h-1zM3 6h1v1h-1zM4 1h1v5h-1z"/><path id="g82" d="M0 0h1v7h-1zM1 0h1v1h-1zM1 3h1v1h-1zM2 0h1v1h-1zM2 3h1v2h-1zM3 0h1v1h-1zM3 3h1v1h-1zM3 5h1v1h-1zM4 1h1v2h-1zM4 6h1v1h-1z"/><path id="g35" d="M0 2h1v1h-1zM0 4h1v1h-1zM1 0h1v7h-1zM2 2h1v1h-1zM2 4h1v1h-1zM3 0h1v7h-1zM4 2h1v1h-1zM4 4h1v1h-1z"/><path id="g52" d="M0 3h1v2h-1zM1 2h1v1h-1zM1 4h1v1h-1zM2 1h1v1h-1zM2 4h1v1h-1zM3 0h1v7h-1zM4 4h1v1h-1z"/><path id="g48" d="M0 1h1v5h-1zM1 0h1v1h-1zM1 4h1v1h-1zM1 6h1v1h-1zM2 0h1v1h-1zM2 3h1v1h-1zM2 6h1v1h-1zM3 0h1v1h-1zM3 2h1v1h-1zM3 6h1v1h-1zM4 1h1v5h-1z"/><path id="g83" d="M0 1h1v2h-1zM0 6h1v1h-1zM1 0h1v1h-1zM1 3h1v1h-1zM1 6h1v1h-1zM2 0h1v1h-1zM2 3h1v1h-1zM2 6h1v1h-1zM3 0h1v1h-1zM3 3h1v1h-1zM3 6h1v1h-1zM4 0h1v1h-1zM4 4h1v2h-1z"/><path id="g80" d="M0 0h1v7h-1zM1 0h1v1h-1zM1 3h1v1h-1zM2 0h1v1h-1zM2 3h1v1h-1zM3 0h1v1h-1zM3 3h1v1h-1zM4 1h1v2h-1z"/><path id="g68" d="M0 0h1v7h-1zM1 0h1v1h-1zM1 6h1v1h-1zM2 0h1v1h-1zM2 6h1v1h-1zM3 1h1v1h-1zM3 5h1v1h-1zM4 2h1v3h-1z"/><path id="g53" d="M0 0h1v3h-1zM0 5h1v1h-1zM1 0h1v1h-1zM1 2h1v1h-1zM1 6h1v1h-1zM2 0h1v1h-1zM2 2h1v1h-1zM2 6h1v1h-1zM3 0h1v1h-1zM3 2h1v1h-1zM3 6h1v1h-1zM4 0h1v1h-1zM4 3h1v3h-1z"/><path id="g85" d="M0 0h1v6h-1zM1 6h1v1h-1zM2 6h1v1h-1zM3 6h1v1h-1zM4 0h1v6h-1z"/><path id="g73" d="M1 0h1v1h-1zM1 6h1v1h-1zM2 0h1v7h-1zM3 0h1v1h-1zM3 6h1v1h-1z"/><path id="g47" d="M0 5h1v1h-1zM1 4h1v1h-1zM2 3h1v1h-1zM3 2h1v1h-1zM4 1h1v1h-1z"/><path id="g77" d="M0 0h1v7h-1zM1 1h1v1h-1zM2 2h1v1h-1zM3 1h1v1h-1zM4 0h1v7h-1z"/><path id="g76" d="M0 0h1v7h-1zM1 6h1v1h-1zM2 6h1v1h-1zM3 6h1v1h-1zM4 6h1v1h-1z"/><path id="g71" d="M0 1h1v5h-1zM1 0h1v1h-1zM1 6h1v1h-1zM2 0h1v1h-1zM2 6h1v1h-1zM3 0h1v1h-1zM3 4h1v1h-1zM3 6h1v1h-1zM4 1h1v1h-1zM4 4h1v2h-1z"/><path id="g70" d="M0 0h1v7h-1zM1 0h1v1h-1zM1 3h1v1h-1zM2 0h1v1h-1zM2 3h1v1h-1zM3 0h1v1h-1zM4 0h1v1h-1z"/><path id="g87" d="M0 0h1v7h-1zM1 5h1v1h-1zM2 3h1v2h-1zM3 5h1v1h-1zM4 0h1v7h-1z"/><path id="g75" d="M0 0h1v7h-1zM1 3h1v1h-1zM2 2h1v1h-1zM2 4h1v1h-1zM3 1h1v1h-1zM3 5h1v1h-1zM4 0h1v1h-1zM4 6h1v1h-1z"/><path id="g89" d="M0 0h1v2h-1zM1 2h1v1h-1zM2 3h1v4h-1zM3 2h1v1h-1zM4 0h1v2h-1z"/><path id="g86" d="M0 0h1v5h-1zM1 5h1v1h-1zM2 6h1v1h-1zM3 5h1v1h-1zM4 0h1v5h-1z"/><path id="g50" d="M0 1h1v1h-1zM0 6h1v1h-1zM1 0h1v1h-1zM1 5h1v2h-1zM2 0h1v1h-1zM2 4h1v1h-1zM2 6h1v1h-1zM3 0h1v1h-1zM3 3h1v1h-1zM3 6h1v1h-1zM4 1h1v2h-1zM4 6h1v1h-1z"/><path id="g54" d="M0 2h1v4h-1zM1 1h1v1h-1zM1 3h1v1h-1zM1 6h1v1h-1zM2 0h1v1h-1zM2 3h1v1h-1zM2 6h1v1h-1zM3 0h1v1h-1zM3 3h1v1h-1zM3 6h1v1h-1zM4 4h1v2h-1z"/><linearGradient id="h-sky" x1="0" y1="0" x2="0" y2="1"><stop offset="0" stop-color="#02060F"/><stop offset=".55" stop-color="#0A1A3C"/><stop offset="1" stop-color="#12244F"/></linearGradient><linearGradient id="h-cone" x1="0" y1="0" x2="0" y2="1"><stop offset="0" stop-color="#FFC93C" stop-opacity=".22"/><stop offset="1" stop-color="#FFC93C" stop-opacity="0"/></linearGradient><clipPath id="h-turfclip"><ellipse cx="440" cy="314" rx="400" ry="104"/></clipPath></defs><rect x="0" y="0" width="880" height="320" fill="#02060F" shape-rendering="crispEdges"/><rect width="880" height="196" fill="url(#h-sky)"/><rect x="465" y="114" width="1" height="1" fill="#F4F7FF" shape-rendering="crispEdges"  opacity="0.39" class="h-star" style="animation-delay:0.25s"/><rect x="731" y="87" width="1" height="1" fill="#F4F7FF" shape-rendering="crispEdges"  opacity="0.55" class="h-star" style="animation-delay:0.98s"/><rect x="419" y="38" width="1" height="1" fill="#F4F7FF" shape-rendering="crispEdges"  opacity="0.49" class="h-star" style="animation-delay:2.20s"/><rect x="830" y="62" width="1" height="1" fill="#F4F7FF" shape-rendering="crispEdges"  opacity="0.20" class="h-star" style="animation-delay:2.61s"/><rect x="253" y="125" width="1" height="1" fill="#F4F7FF" shape-rendering="crispEdges"  opacity="0.17" class="h-star" style="animation-delay:2.48s"/><rect x="11" y="37" width="1" height="1" fill="#F4F7FF" shape-rendering="crispEdges"  opacity="0.38" class="h-star" style="animation-delay:2.88s"/><rect x="399" y="9" width="1" height="1" fill="#F4F7FF" shape-rendering="crispEdges"  opacity="0.58" class="h-star" style="animation-delay:2.21s"/><rect x="331" y="52" width="2" height="2" fill="#F4F7FF" shape-rendering="crispEdges"  opacity="0.43" class="h-star" style="animation-delay:1.07s"/><rect x="170" y="47" width="1" height="1" fill="#F4F7FF" shape-rendering="crispEdges"  opacity="0.55" class="h-star" style="animation-delay:1.16s"/><rect x="608" y="125" width="1" height="1" fill="#F4F7FF" shape-rendering="crispEdges"  opacity="0.33" class="h-star" style="animation-delay:3.05s"/><rect x="709" y="91" width="1" height="1" fill="#F4F7FF" shape-rendering="crispEdges"  opacity="0.44" class="h-star" style="animation-delay:3.22s"/><rect x="465" y="82" width="1" height="1" fill="#F4F7FF" shape-rendering="crispEdges"  opacity="0.30" class="h-star" style="animation-delay:0.22s"/><rect x="10" y="90" width="1" height="1" fill="#F4F7FF" shape-rendering="crispEdges"  opacity="0.63" class="h-star" style="animation-delay:2.55s"/><rect x="517" y="79" width="1" height="1" fill="#F4F7FF" shape-rendering="crispEdges"  opacity="0.36" class="h-star" style="animation-delay:1.46s"/><rect x="724" y="87" width="1" height="1" fill="#F4F7FF" shape-rendering="crispEdges"  opacity="0.20" class="h-star" style="animation-delay:3.44s"/><rect x="479" y="75" width="2" height="2" fill="#F4F7FF" shape-rendering="crispEdges"  opacity="0.51" class="h-star" style="animation-delay:1.70s"/><rect x="229" y="10" width="1" height="1" fill="#F4F7FF" shape-rendering="crispEdges"  opacity="0.24" class="h-star" style="animation-delay:2.71s"/><rect x="3" y="19" width="2" height="2" fill="#F4F7FF" shape-rendering="crispEdges"  opacity="0.23" class="h-star" style="animation-delay:0.17s"/><rect x="615" y="107" width="1" height="1" fill="#F4F7FF" shape-rendering="crispEdges"  opacity="0.37" class="h-star" style="animation-delay:2.72s"/><rect x="699" y="87" width="2" height="2" fill="#F4F7FF" shape-rendering="crispEdges"  opacity="0.29" class="h-star" style="animation-delay:0.46s"/><rect x="861" y="62" width="1" height="1" fill="#F4F7FF" shape-rendering="crispEdges"  opacity="0.56" class="h-star" style="animation-delay:1.90s"/><rect x="578" y="111" width="1" height="1" fill="#F4F7FF" shape-rendering="crispEdges"  opacity="0.24" class="h-star" style="animation-delay:3.92s"/><rect x="811" y="59" width="1" height="1" fill="#F4F7FF" shape-rendering="crispEdges"  opacity="0.31" class="h-star" style="animation-delay:3.81s"/><rect x="343" y="36" width="1" height="1" fill="#F4F7FF" shape-rendering="crispEdges"  opacity="0.40" class="h-star" style="animation-delay:2.33s"/><rect x="309" y="99" width="1" height="1" fill="#F4F7FF" shape-rendering="crispEdges"  opacity="0.62" class="h-star" style="animation-delay:3.50s"/><rect x="852" y="87" width="1" height="1" fill="#F4F7FF" shape-rendering="crispEdges"  opacity="0.30" class="h-star" style="animation-delay:1.64s"/><rect x="878" y="48" width="1" height="1" fill="#F4F7FF" shape-rendering="crispEdges"  opacity="0.54" class="h-star" style="animation-delay:2.45s"/><rect x="419" y="58" width="1" height="1" fill="#F4F7FF" shape-rendering="crispEdges"  opacity="0.16" class="h-star" style="animation-delay:3.73s"/><rect x="768" y="43" width="1" height="1" fill="#F4F7FF" shape-rendering="crispEdges"  opacity="0.60" class="h-star" style="animation-delay:0.70s"/><rect x="226" y="66" width="1" height="1" fill="#F4F7FF" shape-rendering="crispEdges"  opacity="0.26" class="h-star" style="animation-delay:2.54s"/><rect x="571" y="17" width="2" height="2" fill="#F4F7FF" shape-rendering="crispEdges"  opacity="0.39" class="h-star" style="animation-delay:3.86s"/><rect x="597" y="117" width="1" height="1" fill="#F4F7FF" shape-rendering="crispEdges"  opacity="0.35" class="h-star" style="animation-delay:2.43s"/><rect x="228" y="23" width="1" height="1" fill="#F4F7FF" shape-rendering="crispEdges"  opacity="0.63" class="h-star" style="animation-delay:3.02s"/><rect x="381" y="12" width="1" height="1" fill="#F4F7FF" shape-rendering="crispEdges"  opacity="0.21" class="h-star" style="animation-delay:3.62s"/><rect x="650" y="77" width="1" height="1" fill="#F4F7FF" shape-rendering="crispEdges"  opacity="0.62" class="h-star" style="animation-delay:3.08s"/><rect x="763" y="63" width="1" height="1" fill="#F4F7FF" shape-rendering="crispEdges"  opacity="0.41" class="h-star" style="animation-delay:2.27s"/><rect x="600" y="119" width="1" height="1" fill="#F4F7FF" shape-rendering="crispEdges"  opacity="0.61" class="h-star" style="animation-delay:3.70s"/><rect x="728" y="86" width="1" height="1" fill="#F4F7FF" shape-rendering="crispEdges"  opacity="0.26" class="h-star" style="animation-delay:0.35s"/><rect x="508" y="82" width="2" height="2" fill="#F4F7FF" shape-rendering="crispEdges"  opacity="0.49" class="h-star" style="animation-delay:0.27s"/><rect x="782" y="15" width="1" height="1" fill="#F4F7FF" shape-rendering="crispEdges"  opacity="0.57" class="h-star" style="animation-delay:0.75s"/><rect x="23" y="14" width="1" height="1" fill="#F4F7FF" shape-rendering="crispEdges"  opacity="0.62" class="h-star" style="animation-delay:3.94s"/><rect x="490" y="105" width="1" height="1" fill="#F4F7FF" shape-rendering="crispEdges"  opacity="0.28" class="h-star" style="animation-delay:3.02s"/><rect x="243" y="64" width="1" height="1" fill="#F4F7FF" shape-rendering="crispEdges"  opacity="0.29" class="h-star" style="animation-delay:2.20s"/><rect x="835" y="46" width="1" height="1" fill="#F4F7FF" shape-rendering="crispEdges"  opacity="0.42" class="h-star" style="animation-delay:2.16s"/><rect x="547" y="0" width="2" height="2" fill="#F4F7FF" shape-rendering="crispEdges"  opacity="0.56" class="h-star" style="animation-delay:2.39s"/><rect x="30" y="12" width="1" height="1" fill="#F4F7FF" shape-rendering="crispEdges"  opacity="0.32" class="h-star" style="animation-delay:1.84s"/><rect x="447" y="109" width="2" height="2" fill="#F4F7FF" shape-rendering="crispEdges"  opacity="0.23" class="h-star" style="animation-delay:0.48s"/><rect x="565" y="97" width="1" height="1" fill="#F4F7FF" shape-rendering="crispEdges"  opacity="0.60" class="h-star" style="animation-delay:3.17s"/><rect x="488" y="4" width="1" height="1" fill="#F4F7FF" shape-rendering="crispEdges"  opacity="0.53" class="h-star" style="animation-delay:2.21s"/><rect x="822" y="32" width="1" height="1" fill="#F4F7FF" shape-rendering="crispEdges"  opacity="0.25" class="h-star" style="animation-delay:2.49s"/><rect x="88" y="48" width="1" height="1" fill="#F4F7FF" shape-rendering="crispEdges"  opacity="0.62" class="h-star" style="animation-delay:1.39s"/><rect x="713" y="77" width="1" height="1" fill="#F4F7FF" shape-rendering="crispEdges"  opacity="0.31" class="h-star" style="animation-delay:2.61s"/><rect x="774" y="75" width="1" height="1" fill="#F4F7FF" shape-rendering="crispEdges"  opacity="0.43" class="h-star" style="animation-delay:1.68s"/><rect x="225" y="37" width="1" height="1" fill="#F4F7FF" shape-rendering="crispEdges"  opacity="0.37" class="h-star" style="animation-delay:3.86s"/><rect x="46" y="46" width="2" height="2" fill="#F4F7FF" shape-rendering="crispEdges"  opacity="0.50" class="h-star" style="animation-delay:3.30s"/><rect x="351" y="20" width="1" height="1" fill="#F4F7FF" shape-rendering="crispEdges"  opacity="0.60" class="h-star" style="animation-delay:0.05s"/><rect x="794" y="102" width="1" height="1" fill="#F4F7FF" shape-rendering="crispEdges"  opacity="0.65" class="h-star" style="animation-delay:1.64s"/><rect x="819" y="91" width="2" height="2" fill="#F4F7FF" shape-rendering="crispEdges"  opacity="0.54" class="h-star" style="animation-delay:1.92s"/><rect x="325" y="13" width="1" height="1" fill="#F4F7FF" shape-rendering="crispEdges"  opacity="0.27" class="h-star" style="animation-delay:3.66s"/><rect x="544" y="95" width="1" height="1" fill="#F4F7FF" shape-rendering="crispEdges"  opacity="0.44" class="h-star" style="animation-delay:0.35s"/><rect x="63" y="52" width="2" height="2" fill="#F4F7FF" shape-rendering="crispEdges"  opacity="0.60" class="h-star" style="animation-delay:0.60s"/><rect x="210" y="86" width="1" height="1" fill="#F4F7FF" shape-rendering="crispEdges"  opacity="0.19" class="h-star" style="animation-delay:1.14s"/><rect x="645" y="22" width="1" height="1" fill="#F4F7FF" shape-rendering="crispEdges"  opacity="0.51" class="h-star" style="animation-delay:2.81s"/><rect x="218" y="23" width="1" height="1" fill="#F4F7FF" shape-rendering="crispEdges"  opacity="0.31" class="h-star" style="animation-delay:3.76s"/><rect x="512" y="75" width="1" height="1" fill="#F4F7FF" shape-rendering="crispEdges"  opacity="0.42" class="h-star" style="animation-delay:2.92s"/><rect x="198" y="33" width="1" height="1" fill="#F4F7FF" shape-rendering="crispEdges"  opacity="0.15" class="h-star" style="animation-delay:3.52s"/><rect x="153" y="50" width="1" height="1" fill="#F4F7FF" shape-rendering="crispEdges"  opacity="0.61" class="h-star" style="animation-delay:1.43s"/><rect x="855" y="20" width="1" height="1" fill="#F4F7FF" shape-rendering="crispEdges"  opacity="0.54" class="h-star" style="animation-delay:1.61s"/><rect x="377" y="38" width="1" height="1" fill="#F4F7FF" shape-rendering="crispEdges"  opacity="0.58" class="h-star" style="animation-delay:0.95s"/><rect x="633" y="42" width="1" height="1" fill="#F4F7FF" shape-rendering="crispEdges"  opacity="0.22" class="h-star" style="animation-delay:1.72s"/><rect x="0" y="142" width="880" height="54" fill="#02060F" shape-rendering="crispEdges"/><path d="M5 142h4v4h-4zM95 142h4v4h-4zM160 142h4v4h-4zM180 142h4v4h-4zM475 142h4v4h-4zM605 142h4v4h-4zM630 142h4v4h-4zM280 147h4v4h-4zM705 152h4v4h-4zM715 152h4v4h-4zM130 157h4v4h-4zM645 157h4v4h-4zM150 162h4v4h-4zM285 162h4v4h-4zM280 167h4v4h-4zM775 167h4v4h-4zM460 172h4v4h-4zM0 177h4v4h-4zM445 177h4v4h-4zM675 177h4v4h-4zM365 182h4v4h-4zM775 182h4v4h-4zM70 187h4v4h-4zM135 187h4v4h-4zM360 187h4v4h-4zM365 187h4v4h-4zM465 187h4v4h-4zM540 187h4v4h-4zM790 187h4v4h-4zM810 187h4v4h-4z" fill="#F4F7FF" shape-rendering="crispEdges"/><path d="M20 142h4v4h-4zM25 142h4v4h-4zM70 142h4v4h-4zM75 142h4v4h-4zM80 142h4v4h-4zM85 142h4v4h-4zM100 142h4v4h-4zM130 142h4v4h-4zM170 142h4v4h-4zM265 142h4v4h-4zM280 142h4v4h-4zM290 142h4v4h-4zM315 142h4v4h-4zM390 142h4v4h-4zM395 142h4v4h-4zM410 142h4v4h-4zM425 142h4v4h-4zM445 142h4v4h-4zM455 142h4v4h-4zM460 142h4v4h-4zM465 142h4v4h-4zM480 142h4v4h-4zM485 142h4v4h-4zM490 142h4v4h-4zM500 142h4v4h-4zM510 142h4v4h-4zM525 142h4v4h-4zM530 142h4v4h-4zM565 142h4v4h-4zM590 142h4v4h-4zM595 142h4v4h-4zM610 142h4v4h-4zM625 142h4v4h-4zM690 142h4v4h-4zM735 142h4v4h-4zM745 142h4v4h-4zM750 142h4v4h-4zM760 142h4v4h-4zM765 142h4v4h-4zM785 142h4v4h-4zM795 142h4v4h-4zM815 142h4v4h-4zM840 142h4v4h-4zM875 142h4v4h-4zM5 147h4v4h-4zM10 147h4v4h-4zM25 147h4v4h-4zM45 147h4v4h-4zM60 147h4v4h-4zM85 147h4v4h-4zM105 147h4v4h-4zM110 147h4v4h-4zM115 147h4v4h-4zM120 147h4v4h-4zM125 147h4v4h-4zM135 147h4v4h-4zM140 147h4v4h-4zM150 147h4v4h-4zM165 147h4v4h-4zM170 147h4v4h-4zM180 147h4v4h-4zM185 147h4v4h-4zM210 147h4v4h-4zM230 147h4v4h-4zM240 147h4v4h-4zM270 147h4v4h-4zM285 147h4v4h-4zM305 147h4v4h-4zM315 147h4v4h-4zM320 147h4v4h-4zM345 147h4v4h-4zM365 147h4v4h-4zM405 147h4v4h-4zM415 147h4v4h-4zM450 147h4v4h-4zM465 147h4v4h-4zM500 147h4v4h-4zM510 147h4v4h-4zM530 147h4v4h-4zM540 147h4v4h-4zM560 147h4v4h-4zM590 147h4v4h-4zM605 147h4v4h-4zM630 147h4v4h-4zM635 147h4v4h-4zM640 147h4v4h-4zM660 147h4v4h-4zM675 147h4v4h-4zM700 147h4v4h-4zM720 147h4v4h-4zM740 147h4v4h-4zM750 147h4v4h-4zM790 147h4v4h-4zM805 147h4v4h-4zM810 147h4v4h-4zM820 147h4v4h-4zM830 147h4v4h-4zM840 147h4v4h-4zM855 147h4v4h-4zM0 152h4v4h-4zM5 152h4v4h-4zM10 152h4v4h-4zM15 152h4v4h-4zM25 152h4v4h-4zM45 152h4v4h-4zM80 152h4v4h-4zM110 152h4v4h-4zM115 152h4v4h-4zM120 152h4v4h-4zM125 152h4v4h-4zM135 152h4v4h-4zM175 152h4v4h-4zM200 152h4v4h-4zM215 152h4v4h-4zM230 152h4v4h-4zM235 152h4v4h-4zM255 152h4v4h-4zM280 152h4v4h-4zM305 152h4v4h-4zM330 152h4v4h-4zM335 152h4v4h-4zM345 152h4v4h-4zM360 152h4v4h-4zM380 152h4v4h-4zM410 152h4v4h-4zM425 152h4v4h-4zM470 152h4v4h-4zM475 152h4v4h-4zM495 152h4v4h-4zM505 152h4v4h-4zM540 152h4v4h-4zM550 152h4v4h-4zM575 152h4v4h-4zM585 152h4v4h-4zM635 152h4v4h-4zM645 152h4v4h-4zM675 152h4v4h-4zM685 152h4v4h-4zM710 152h4v4h-4zM720 152h4v4h-4zM730 152h4v4h-4zM755 152h4v4h-4zM765 152h4v4h-4zM815 152h4v4h-4zM825 152h4v4h-4zM835 152h4v4h-4zM845 152h4v4h-4zM875 152h4v4h-4zM10 157h4v4h-4zM40 157h4v4h-4zM65 157h4v4h-4zM85 157h4v4h-4zM100 157h4v4h-4zM105 157h4v4h-4zM110 157h4v4h-4zM115 157h4v4h-4zM125 157h4v4h-4zM135 157h4v4h-4zM150 157h4v4h-4zM175 157h4v4h-4zM190 157h4v4h-4zM215 157h4v4h-4zM260 157h4v4h-4zM275 157h4v4h-4zM280 157h4v4h-4zM290 157h4v4h-4zM295 157h4v4h-4zM335 157h4v4h-4zM380 157h4v4h-4zM390 157h4v4h-4zM400 157h4v4h-4zM410 157h4v4h-4zM420 157h4v4h-4zM460 157h4v4h-4zM525 157h4v4h-4zM530 157h4v4h-4zM625 157h4v4h-4zM635 157h4v4h-4zM670 157h4v4h-4zM675 157h4v4h-4zM680 157h4v4h-4zM700 157h4v4h-4zM710 157h4v4h-4zM720 157h4v4h-4zM725 157h4v4h-4zM740 157h4v4h-4zM745 157h4v4h-4zM750 157h4v4h-4zM770 157h4v4h-4zM775 157h4v4h-4zM815 157h4v4h-4zM840 157h4v4h-4zM845 157h4v4h-4zM865 157h4v4h-4zM875 157h4v4h-4zM20 162h4v4h-4zM35 162h4v4h-4zM40 162h4v4h-4zM70 162h4v4h-4zM100 162h4v4h-4zM110 162h4v4h-4zM115 162h4v4h-4zM135 162h4v4h-4zM185 162h4v4h-4zM200 162h4v4h-4zM215 162h4v4h-4zM220 162h4v4h-4zM230 162h4v4h-4zM265 162h4v4h-4zM280 162h4v4h-4zM295 162h4v4h-4zM305 162h4v4h-4zM310 162h4v4h-4zM320 162h4v4h-4zM335 162h4v4h-4zM350 162h4v4h-4zM370 162h4v4h-4zM380 162h4v4h-4zM390 162h4v4h-4zM430 162h4v4h-4zM445 162h4v4h-4zM480 162h4v4h-4zM485 162h4v4h-4zM490 162h4v4h-4zM500 162h4v4h-4zM505 162h4v4h-4zM520 162h4v4h-4zM525 162h4v4h-4zM545 162h4v4h-4zM550 162h4v4h-4zM615 162h4v4h-4zM630 162h4v4h-4zM635 162h4v4h-4zM655 162h4v4h-4zM725 162h4v4h-4zM745 162h4v4h-4zM755 162h4v4h-4zM760 162h4v4h-4zM795 162h4v4h-4zM805 162h4v4h-4zM835 162h4v4h-4zM840 162h4v4h-4zM865 162h4v4h-4zM875 162h4v4h-4zM10 167h4v4h-4zM25 167h4v4h-4zM60 167h4v4h-4zM70 167h4v4h-4zM80 167h4v4h-4zM90 167h4v4h-4zM95 167h4v4h-4zM110 167h4v4h-4zM125 167h4v4h-4zM135 167h4v4h-4zM150 167h4v4h-4zM165 167h4v4h-4zM170 167h4v4h-4zM205 167h4v4h-4zM210 167h4v4h-4zM220 167h4v4h-4zM230 167h4v4h-4zM260 167h4v4h-4zM275 167h4v4h-4zM285 167h4v4h-4zM295 167h4v4h-4zM330 167h4v4h-4zM335 167h4v4h-4zM345 167h4v4h-4zM350 167h4v4h-4zM355 167h4v4h-4zM380 167h4v4h-4zM415 167h4v4h-4zM425 167h4v4h-4zM450 167h4v4h-4zM505 167h4v4h-4zM510 167h4v4h-4zM540 167h4v4h-4zM550 167h4v4h-4zM585 167h4v4h-4zM625 167h4v4h-4zM630 167h4v4h-4zM635 167h4v4h-4zM660 167h4v4h-4zM675 167h4v4h-4zM710 167h4v4h-4zM715 167h4v4h-4zM735 167h4v4h-4zM740 167h4v4h-4zM750 167h4v4h-4zM765 167h4v4h-4zM770 167h4v4h-4zM785 167h4v4h-4zM810 167h4v4h-4zM835 167h4v4h-4zM845 167h4v4h-4zM855 167h4v4h-4zM870 167h4v4h-4zM875 167h4v4h-4zM30 172h4v4h-4zM35 172h4v4h-4zM45 172h4v4h-4zM70 172h4v4h-4zM85 172h4v4h-4zM115 172h4v4h-4zM140 172h4v4h-4zM150 172h4v4h-4zM170 172h4v4h-4zM175 172h4v4h-4zM180 172h4v4h-4zM190 172h4v4h-4zM230 172h4v4h-4zM240 172h4v4h-4zM245 172h4v4h-4zM255 172h4v4h-4zM275 172h4v4h-4zM290 172h4v4h-4zM300 172h4v4h-4zM310 172h4v4h-4zM315 172h4v4h-4zM320 172h4v4h-4zM340 172h4v4h-4zM355 172h4v4h-4zM375 172h4v4h-4zM395 172h4v4h-4zM400 172h4v4h-4zM430 172h4v4h-4zM435 172h4v4h-4zM445 172h4v4h-4zM455 172h4v4h-4zM470 172h4v4h-4zM480 172h4v4h-4zM490 172h4v4h-4zM560 172h4v4h-4zM565 172h4v4h-4zM575 172h4v4h-4zM630 172h4v4h-4zM640 172h4v4h-4zM680 172h4v4h-4zM690 172h4v4h-4zM705 172h4v4h-4zM720 172h4v4h-4zM740 172h4v4h-4zM770 172h4v4h-4zM775 172h4v4h-4zM785 172h4v4h-4zM825 172h4v4h-4zM15 177h4v4h-4zM35 177h4v4h-4zM45 177h4v4h-4zM55 177h4v4h-4zM65 177h4v4h-4zM90 177h4v4h-4zM115 177h4v4h-4zM125 177h4v4h-4zM130 177h4v4h-4zM135 177h4v4h-4zM150 177h4v4h-4zM155 177h4v4h-4zM170 177h4v4h-4zM175 177h4v4h-4zM180 177h4v4h-4zM185 177h4v4h-4zM190 177h4v4h-4zM220 177h4v4h-4zM230 177h4v4h-4zM240 177h4v4h-4zM260 177h4v4h-4zM285 177h4v4h-4zM300 177h4v4h-4zM310 177h4v4h-4zM320 177h4v4h-4zM395 177h4v4h-4zM400 177h4v4h-4zM415 177h4v4h-4zM455 177h4v4h-4zM465 177h4v4h-4zM475 177h4v4h-4zM535 177h4v4h-4zM540 177h4v4h-4zM545 177h4v4h-4zM560 177h4v4h-4zM605 177h4v4h-4zM650 177h4v4h-4zM660 177h4v4h-4zM685 177h4v4h-4zM705 177h4v4h-4zM720 177h4v4h-4zM815 177h4v4h-4zM865 177h4v4h-4zM0 182h4v4h-4zM5 182h4v4h-4zM10 182h4v4h-4zM15 182h4v4h-4zM20 182h4v4h-4zM30 182h4v4h-4zM40 182h4v4h-4zM45 182h4v4h-4zM85 182h4v4h-4zM90 182h4v4h-4zM105 182h4v4h-4zM110 182h4v4h-4zM135 182h4v4h-4zM190 182h4v4h-4zM195 182h4v4h-4zM205 182h4v4h-4zM255 182h4v4h-4zM260 182h4v4h-4zM265 182h4v4h-4zM290 182h4v4h-4zM325 182h4v4h-4zM330 182h4v4h-4zM360 182h4v4h-4zM370 182h4v4h-4zM380 182h4v4h-4zM390 182h4v4h-4zM395 182h4v4h-4zM400 182h4v4h-4zM405 182h4v4h-4zM410 182h4v4h-4zM420 182h4v4h-4zM430 182h4v4h-4zM470 182h4v4h-4zM500 182h4v4h-4zM510 182h4v4h-4zM515 182h4v4h-4zM525 182h4v4h-4zM540 182h4v4h-4zM555 182h4v4h-4zM570 182h4v4h-4zM575 182h4v4h-4zM580 182h4v4h-4zM585 182h4v4h-4zM605 182h4v4h-4zM610 182h4v4h-4zM620 182h4v4h-4zM665 182h4v4h-4zM670 182h4v4h-4zM675 182h4v4h-4zM710 182h4v4h-4zM745 182h4v4h-4zM770 182h4v4h-4zM785 182h4v4h-4zM805 182h4v4h-4zM810 182h4v4h-4zM815 182h4v4h-4zM835 182h4v4h-4zM15 187h4v4h-4zM55 187h4v4h-4zM80 187h4v4h-4zM100 187h4v4h-4zM110 187h4v4h-4zM120 187h4v4h-4zM150 187h4v4h-4zM155 187h4v4h-4zM170 187h4v4h-4zM185 187h4v4h-4zM190 187h4v4h-4zM200 187h4v4h-4zM225 187h4v4h-4zM230 187h4v4h-4zM240 187h4v4h-4zM255 187h4v4h-4zM260 187h4v4h-4zM275 187h4v4h-4zM290 187h4v4h-4zM295 187h4v4h-4zM325 187h4v4h-4zM330 187h4v4h-4zM340 187h4v4h-4zM345 187h4v4h-4zM350 187h4v4h-4zM370 187h4v4h-4zM375 187h4v4h-4zM395 187h4v4h-4zM405 187h4v4h-4zM435 187h4v4h-4zM450 187h4v4h-4zM475 187h4v4h-4zM515 187h4v4h-4zM550 187h4v4h-4zM560 187h4v4h-4zM565 187h4v4h-4zM570 187h4v4h-4zM575 187h4v4h-4zM605 187h4v4h-4zM615 187h4v4h-4zM620 187h4v4h-4zM630 187h4v4h-4zM635 187h4v4h-4zM650 187h4v4h-4zM660 187h4v4h-4zM695 187h4v4h-4zM700 187h4v4h-4zM740 187h4v4h-4zM785 187h4v4h-4zM795 187h4v4h-4zM800 187h4v4h-4zM820 187h4v4h-4zM835 187h4v4h-4zM860 187h4v4h-4z" fill="#131F3E" shape-rendering="crispEdges"/><path d="M55 142h4v4h-4zM65 142h4v4h-4zM90 142h4v4h-4zM110 142h4v4h-4zM120 142h4v4h-4zM145 142h4v4h-4zM195 142h4v4h-4zM215 142h4v4h-4zM235 142h4v4h-4zM260 142h4v4h-4zM305 142h4v4h-4zM330 142h4v4h-4zM335 142h4v4h-4zM340 142h4v4h-4zM365 142h4v4h-4zM370 142h4v4h-4zM415 142h4v4h-4zM495 142h4v4h-4zM505 142h4v4h-4zM550 142h4v4h-4zM560 142h4v4h-4zM575 142h4v4h-4zM585 142h4v4h-4zM615 142h4v4h-4zM660 142h4v4h-4zM675 142h4v4h-4zM725 142h4v4h-4zM800 142h4v4h-4zM825 142h4v4h-4zM855 142h4v4h-4zM15 147h4v4h-4zM65 147h4v4h-4zM75 147h4v4h-4zM80 147h4v4h-4zM95 147h4v4h-4zM130 147h4v4h-4zM145 147h4v4h-4zM225 147h4v4h-4zM295 147h4v4h-4zM335 147h4v4h-4zM395 147h4v4h-4zM425 147h4v4h-4zM505 147h4v4h-4zM535 147h4v4h-4zM595 147h4v4h-4zM610 147h4v4h-4zM615 147h4v4h-4zM680 147h4v4h-4zM705 147h4v4h-4zM710 147h4v4h-4zM715 147h4v4h-4zM770 147h4v4h-4zM800 147h4v4h-4zM850 147h4v4h-4zM40 152h4v4h-4zM65 152h4v4h-4zM100 152h4v4h-4zM150 152h4v4h-4zM160 152h4v4h-4zM165 152h4v4h-4zM205 152h4v4h-4zM210 152h4v4h-4zM220 152h4v4h-4zM250 152h4v4h-4zM295 152h4v4h-4zM300 152h4v4h-4zM315 152h4v4h-4zM355 152h4v4h-4zM365 152h4v4h-4zM390 152h4v4h-4zM435 152h4v4h-4zM450 152h4v4h-4zM455 152h4v4h-4zM515 152h4v4h-4zM530 152h4v4h-4zM555 152h4v4h-4zM590 152h4v4h-4zM615 152h4v4h-4zM620 152h4v4h-4zM630 152h4v4h-4zM660 152h4v4h-4zM725 152h4v4h-4zM840 152h4v4h-4zM855 152h4v4h-4zM20 157h4v4h-4zM25 157h4v4h-4zM75 157h4v4h-4zM230 157h4v4h-4zM285 157h4v4h-4zM340 157h4v4h-4zM415 157h4v4h-4zM425 157h4v4h-4zM480 157h4v4h-4zM490 157h4v4h-4zM545 157h4v4h-4zM555 157h4v4h-4zM600 157h4v4h-4zM615 157h4v4h-4zM620 157h4v4h-4zM715 157h4v4h-4zM790 157h4v4h-4zM25 162h4v4h-4zM60 162h4v4h-4zM75 162h4v4h-4zM85 162h4v4h-4zM105 162h4v4h-4zM130 162h4v4h-4zM140 162h4v4h-4zM210 162h4v4h-4zM225 162h4v4h-4zM245 162h4v4h-4zM275 162h4v4h-4zM290 162h4v4h-4zM300 162h4v4h-4zM355 162h4v4h-4zM360 162h4v4h-4zM405 162h4v4h-4zM475 162h4v4h-4zM560 162h4v4h-4zM585 162h4v4h-4zM590 162h4v4h-4zM600 162h4v4h-4zM605 162h4v4h-4zM660 162h4v4h-4zM675 162h4v4h-4zM680 162h4v4h-4zM685 162h4v4h-4zM695 162h4v4h-4zM765 162h4v4h-4zM855 162h4v4h-4zM860 162h4v4h-4zM30 167h4v4h-4zM75 167h4v4h-4zM120 167h4v4h-4zM175 167h4v4h-4zM190 167h4v4h-4zM245 167h4v4h-4zM315 167h4v4h-4zM405 167h4v4h-4zM455 167h4v4h-4zM475 167h4v4h-4zM490 167h4v4h-4zM515 167h4v4h-4zM555 167h4v4h-4zM565 167h4v4h-4zM620 167h4v4h-4zM640 167h4v4h-4zM645 167h4v4h-4zM655 167h4v4h-4zM665 167h4v4h-4zM760 167h4v4h-4zM805 167h4v4h-4zM815 167h4v4h-4zM820 167h4v4h-4zM830 167h4v4h-4zM840 167h4v4h-4zM860 167h4v4h-4zM20 172h4v4h-4zM40 172h4v4h-4zM50 172h4v4h-4zM105 172h4v4h-4zM210 172h4v4h-4zM225 172h4v4h-4zM285 172h4v4h-4zM410 172h4v4h-4zM415 172h4v4h-4zM425 172h4v4h-4zM450 172h4v4h-4zM465 172h4v4h-4zM495 172h4v4h-4zM500 172h4v4h-4zM530 172h4v4h-4zM545 172h4v4h-4zM555 172h4v4h-4zM610 172h4v4h-4zM645 172h4v4h-4zM655 172h4v4h-4zM670 172h4v4h-4zM695 172h4v4h-4zM800 172h4v4h-4zM805 172h4v4h-4zM855 172h4v4h-4zM10 177h4v4h-4zM120 177h4v4h-4zM140 177h4v4h-4zM145 177h4v4h-4zM160 177h4v4h-4zM165 177h4v4h-4zM210 177h4v4h-4zM235 177h4v4h-4zM270 177h4v4h-4zM315 177h4v4h-4zM375 177h4v4h-4zM410 177h4v4h-4zM440 177h4v4h-4zM470 177h4v4h-4zM510 177h4v4h-4zM530 177h4v4h-4zM625 177h4v4h-4zM635 177h4v4h-4zM655 177h4v4h-4zM665 177h4v4h-4zM735 177h4v4h-4zM775 177h4v4h-4zM790 177h4v4h-4zM795 177h4v4h-4zM830 177h4v4h-4zM25 182h4v4h-4zM165 182h4v4h-4zM170 182h4v4h-4zM175 182h4v4h-4zM220 182h4v4h-4zM230 182h4v4h-4zM250 182h4v4h-4zM280 182h4v4h-4zM300 182h4v4h-4zM435 182h4v4h-4zM465 182h4v4h-4zM530 182h4v4h-4zM535 182h4v4h-4zM630 182h4v4h-4zM655 182h4v4h-4zM715 182h4v4h-4zM725 182h4v4h-4zM830 182h4v4h-4zM865 182h4v4h-4zM870 182h4v4h-4zM20 187h4v4h-4zM25 187h4v4h-4zM40 187h4v4h-4zM50 187h4v4h-4zM65 187h4v4h-4zM75 187h4v4h-4zM140 187h4v4h-4zM160 187h4v4h-4zM175 187h4v4h-4zM195 187h4v4h-4zM215 187h4v4h-4zM245 187h4v4h-4zM265 187h4v4h-4zM300 187h4v4h-4zM590 187h4v4h-4zM595 187h4v4h-4zM600 187h4v4h-4zM655 187h4v4h-4zM665 187h4v4h-4zM685 187h4v4h-4zM690 187h4v4h-4zM715 187h4v4h-4zM735 187h4v4h-4zM760 187h4v4h-4zM780 187h4v4h-4zM870 187h4v4h-4zM875 187h4v4h-4z" fill="#1A2C52" shape-rendering="crispEdges"/><path d="M125 142h4v4h-4zM540 142h4v4h-4zM865 142h4v4h-4zM50 147h4v4h-4zM215 147h4v4h-4zM440 147h4v4h-4zM460 147h4v4h-4zM555 147h4v4h-4zM725 147h4v4h-4zM735 147h4v4h-4zM760 147h4v4h-4zM765 147h4v4h-4zM190 152h4v4h-4zM240 152h4v4h-4zM370 152h4v4h-4zM430 152h4v4h-4zM465 152h4v4h-4zM610 152h4v4h-4zM60 157h4v4h-4zM310 157h4v4h-4zM485 157h4v4h-4zM650 157h4v4h-4zM690 157h4v4h-4zM760 157h4v4h-4zM800 157h4v4h-4zM145 162h4v4h-4zM155 162h4v4h-4zM160 162h4v4h-4zM240 162h4v4h-4zM340 162h4v4h-4zM375 167h4v4h-4zM485 167h4v4h-4zM65 172h4v4h-4zM215 172h4v4h-4zM235 172h4v4h-4zM325 172h4v4h-4zM335 172h4v4h-4zM360 172h4v4h-4zM550 172h4v4h-4zM665 172h4v4h-4zM875 172h4v4h-4zM95 177h4v4h-4zM275 177h4v4h-4zM425 177h4v4h-4zM585 177h4v4h-4zM595 177h4v4h-4zM690 177h4v4h-4zM745 177h4v4h-4zM840 177h4v4h-4zM100 182h4v4h-4zM550 182h4v4h-4zM645 182h4v4h-4zM790 182h4v4h-4zM845 182h4v4h-4zM5 187h4v4h-4zM60 187h4v4h-4zM115 187h4v4h-4zM210 187h4v4h-4zM440 187h4v4h-4zM610 187h4v4h-4zM720 187h4v4h-4zM865 187h4v4h-4z" fill="#FF9933" shape-rendering="crispEdges"/><path d="M225 142h4v4h-4zM450 142h4v4h-4zM635 142h4v4h-4zM655 147h4v4h-4zM75 152h4v4h-4zM325 152h4v4h-4zM385 152h4v4h-4zM405 152h4v4h-4zM690 152h4v4h-4zM35 157h4v4h-4zM185 157h4v4h-4zM465 157h4v4h-4zM470 157h4v4h-4zM475 157h4v4h-4zM510 157h4v4h-4zM735 157h4v4h-4zM410 162h4v4h-4zM40 167h4v4h-4zM115 167h4v4h-4zM500 167h4v4h-4zM670 167h4v4h-4zM100 172h4v4h-4zM160 172h4v4h-4zM485 172h4v4h-4zM535 172h4v4h-4zM60 177h4v4h-4zM120 182h4v4h-4zM200 182h4v4h-4zM445 182h4v4h-4zM595 182h4v4h-4zM530 187h4v4h-4zM645 187h4v4h-4z" fill="#138808" shape-rendering="crispEdges"/><rect x="0" y="138" width="880" height="4" fill="#12244F" shape-rendering="crispEdges"/><rect x="0" y="188" width="880" height="8" fill="#0A1A3C" shape-rendering="crispEdges"/><path d="M6 130l7 12 7-12z" fill="#FF9933" opacity=".85" class="h-flag" style="animation-delay:0.05s"/><path d="M28 130l7 12 7-12z" fill="#F4F7FF" opacity=".85" class="h-flag" style="animation-delay:0.21s"/><path d="M50 130l7 12 7-12z" fill="#138808" opacity=".85" class="h-flag" style="animation-delay:0.38s"/><path d="M72 130l7 12 7-12z" fill="#FF9933" opacity=".85" class="h-flag" style="animation-delay:0.55s"/><path d="M94 130l7 12 7-12z" fill="#F4F7FF" opacity=".85" class="h-flag" style="animation-delay:0.71s"/><path d="M116 130l7 12 7-12z" fill="#138808" opacity=".85" class="h-flag" style="animation-delay:0.88s"/><path d="M138 130l7 12 7-12z" fill="#FF9933" opacity=".85" class="h-flag" style="animation-delay:0.05s"/><path d="M160 130l7 12 7-12z" fill="#F4F7FF" opacity=".85" class="h-flag" style="animation-delay:0.21s"/><path d="M182 130l7 12 7-12z" fill="#138808" opacity=".85" class="h-flag" style="animation-delay:0.38s"/><path d="M204 130l7 12 7-12z" fill="#FF9933" opacity=".85" class="h-flag" style="animation-delay:0.55s"/><path d="M226 130l7 12 7-12z" fill="#F4F7FF" opacity=".85" class="h-flag" style="animation-delay:0.71s"/><path d="M248 130l7 12 7-12z" fill="#138808" opacity=".85" class="h-flag" style="animation-delay:0.88s"/><path d="M270 130l7 12 7-12z" fill="#FF9933" opacity=".85" class="h-flag" style="animation-delay:0.05s"/><path d="M292 130l7 12 7-12z" fill="#F4F7FF" opacity=".85" class="h-flag" style="animation-delay:0.21s"/><path d="M314 130l7 12 7-12z" fill="#138808" opacity=".85" class="h-flag" style="animation-delay:0.38s"/><path d="M336 130l7 12 7-12z" fill="#FF9933" opacity=".85" class="h-flag" style="animation-delay:0.55s"/><path d="M358 130l7 12 7-12z" fill="#F4F7FF" opacity=".85" class="h-flag" style="animation-delay:0.71s"/><path d="M380 130l7 12 7-12z" fill="#138808" opacity=".85" class="h-flag" style="animation-delay:0.88s"/><path d="M402 130l7 12 7-12z" fill="#FF9933" opacity=".85" class="h-flag" style="animation-delay:0.05s"/><path d="M424 130l7 12 7-12z" fill="#F4F7FF" opacity=".85" class="h-flag" style="animation-delay:0.21s"/><path d="M446 130l7 12 7-12z" fill="#138808" opacity=".85" class="h-flag" style="animation-delay:0.38s"/><path d="M468 130l7 12 7-12z" fill="#FF9933" opacity=".85" class="h-flag" style="animation-delay:0.55s"/><path d="M490 130l7 12 7-12z" fill="#F4F7FF" opacity=".85" class="h-flag" style="animation-delay:0.71s"/><path d="M512 130l7 12 7-12z" fill="#138808" opacity=".85" class="h-flag" style="animation-delay:0.88s"/><path d="M534 130l7 12 7-12z" fill="#FF9933" opacity=".85" class="h-flag" style="animation-delay:0.05s"/><path d="M556 130l7 12 7-12z" fill="#F4F7FF" opacity=".85" class="h-flag" style="animation-delay:0.21s"/><path d="M578 130l7 12 7-12z" fill="#138808" opacity=".85" class="h-flag" style="animation-delay:0.38s"/><path d="M600 130l7 12 7-12z" fill="#FF9933" opacity=".85" class="h-flag" style="animation-delay:0.55s"/><path d="M622 130l7 12 7-12z" fill="#F4F7FF" opacity=".85" class="h-flag" style="animation-delay:0.71s"/><path d="M644 130l7 12 7-12z" fill="#138808" opacity=".85" class="h-flag" style="animation-delay:0.88s"/><path d="M666 130l7 12 7-12z" fill="#FF9933" opacity=".85" class="h-flag" style="animation-delay:0.05s"/><path d="M688 130l7 12 7-12z" fill="#F4F7FF" opacity=".85" class="h-flag" style="animation-delay:0.21s"/><path d="M710 130l7 12 7-12z" fill="#138808" opacity=".85" class="h-flag" style="animation-delay:0.38s"/><path d="M732 130l7 12 7-12z" fill="#FF9933" opacity=".85" class="h-flag" style="animation-delay:0.55s"/><path d="M754 130l7 12 7-12z" fill="#F4F7FF" opacity=".85" class="h-flag" style="animation-delay:0.71s"/><path d="M776 130l7 12 7-12z" fill="#138808" opacity=".85" class="h-flag" style="animation-delay:0.88s"/><path d="M798 130l7 12 7-12z" fill="#FF9933" opacity=".85" class="h-flag" style="animation-delay:0.05s"/><path d="M820 130l7 12 7-12z" fill="#F4F7FF" opacity=".85" class="h-flag" style="animation-delay:0.21s"/><path d="M842 130l7 12 7-12z" fill="#138808" opacity=".85" class="h-flag" style="animation-delay:0.38s"/><path d="M864 130l7 12 7-12z" fill="#FF9933" opacity=".85" class="h-flag" style="animation-delay:0.55s"/><rect x="94" y="46" width="4" height="74" fill="#1E3A78" shape-rendering="crispEdges"/><rect x="90" y="71.9" width="12" height="2" fill="#1E3A78" shape-rendering="crispEdges"/><rect x="88" y="97.8" width="16" height="2" fill="#1E3A78" shape-rendering="crispEdges"/><rect x="79" y="30" width="34" height="16" fill="#12244F" shape-rendering="crispEdges"/><rect x="82" y="32" width="4" height="3" fill="#FFC93C" shape-rendering="crispEdges"  class="h-lamp" style="animation-delay:0.00s"/><rect x="88" y="32" width="4" height="3" fill="#FFC93C" shape-rendering="crispEdges"  class="h-lamp" style="animation-delay:0.12s"/><rect x="94" y="32" width="4" height="3" fill="#FFC93C" shape-rendering="crispEdges"  class="h-lamp" style="animation-delay:0.24s"/><rect x="100" y="32" width="4" height="3" fill="#FFC93C" shape-rendering="crispEdges"  class="h-lamp" style="animation-delay:0.36s"/><rect x="106" y="32" width="4" height="3" fill="#FFC93C" shape-rendering="crispEdges"  class="h-lamp" style="animation-delay:0.48s"/><rect x="82" y="37" width="4" height="3" fill="#FFC93C" shape-rendering="crispEdges"  class="h-lamp" style="animation-delay:0.12s"/><rect x="88" y="37" width="4" height="3" fill="#FFC93C" shape-rendering="crispEdges"  class="h-lamp" style="animation-delay:0.24s"/><rect x="94" y="37" width="4" height="3" fill="#FFC93C" shape-rendering="crispEdges"  class="h-lamp" style="animation-delay:0.36s"/><rect x="100" y="37" width="4" height="3" fill="#FFC93C" shape-rendering="crispEdges"  class="h-lamp" style="animation-delay:0.48s"/><rect x="106" y="37" width="4" height="3" fill="#FFC93C" shape-rendering="crispEdges"  class="h-lamp" style="animation-delay:0.60s"/><rect x="82" y="42" width="4" height="3" fill="#FFC93C" shape-rendering="crispEdges"  class="h-lamp" style="animation-delay:0.24s"/><rect x="88" y="42" width="4" height="3" fill="#FFC93C" shape-rendering="crispEdges"  class="h-lamp" style="animation-delay:0.36s"/><rect x="94" y="42" width="4" height="3" fill="#FFC93C" shape-rendering="crispEdges"  class="h-lamp" style="animation-delay:0.48s"/><rect x="100" y="42" width="4" height="3" fill="#FFC93C" shape-rendering="crispEdges"  class="h-lamp" style="animation-delay:0.60s"/><rect x="106" y="42" width="4" height="3" fill="#FFC93C" shape-rendering="crispEdges"  class="h-lamp" style="animation-delay:0.72s"/><path d="M79 46 L169 240 L53 240 L113 46 Z" fill="url(#h-cone)" class="h-beam"/><rect x="782" y="46" width="4" height="74" fill="#1E3A78" shape-rendering="crispEdges"/><rect x="778" y="71.9" width="12" height="2" fill="#1E3A78" shape-rendering="crispEdges"/><rect x="776" y="97.8" width="16" height="2" fill="#1E3A78" shape-rendering="crispEdges"/><rect x="767" y="30" width="34" height="16" fill="#12244F" shape-rendering="crispEdges"/><rect x="770" y="32" width="4" height="3" fill="#FFC93C" shape-rendering="crispEdges"  class="h-lamp" style="animation-delay:0.00s"/><rect x="776" y="32" width="4" height="3" fill="#FFC93C" shape-rendering="crispEdges"  class="h-lamp" style="animation-delay:0.12s"/><rect x="782" y="32" width="4" height="3" fill="#FFC93C" shape-rendering="crispEdges"  class="h-lamp" style="animation-delay:0.24s"/><rect x="788" y="32" width="4" height="3" fill="#FFC93C" shape-rendering="crispEdges"  class="h-lamp" style="animation-delay:0.36s"/><rect x="794" y="32" width="4" height="3" fill="#FFC93C" shape-rendering="crispEdges"  class="h-lamp" style="animation-delay:0.48s"/><rect x="770" y="37" width="4" height="3" fill="#FFC93C" shape-rendering="crispEdges"  class="h-lamp" style="animation-delay:0.12s"/><rect x="776" y="37" width="4" height="3" fill="#FFC93C" shape-rendering="crispEdges"  class="h-lamp" style="animation-delay:0.24s"/><rect x="782" y="37" width="4" height="3" fill="#FFC93C" shape-rendering="crispEdges"  class="h-lamp" style="animation-delay:0.36s"/><rect x="788" y="37" width="4" height="3" fill="#FFC93C" shape-rendering="crispEdges"  class="h-lamp" style="animation-delay:0.48s"/><rect x="794" y="37" width="4" height="3" fill="#FFC93C" shape-rendering="crispEdges"  class="h-lamp" style="animation-delay:0.60s"/><rect x="770" y="42" width="4" height="3" fill="#FFC93C" shape-rendering="crispEdges"  class="h-lamp" style="animation-delay:0.24s"/><rect x="776" y="42" width="4" height="3" fill="#FFC93C" shape-rendering="crispEdges"  class="h-lamp" style="animation-delay:0.36s"/><rect x="782" y="42" width="4" height="3" fill="#FFC93C" shape-rendering="crispEdges"  class="h-lamp" style="animation-delay:0.48s"/><rect x="788" y="42" width="4" height="3" fill="#FFC93C" shape-rendering="crispEdges"  class="h-lamp" style="animation-delay:0.60s"/><rect x="794" y="42" width="4" height="3" fill="#FFC93C" shape-rendering="crispEdges"  class="h-lamp" style="animation-delay:0.72s"/><path d="M767 46 L677 240 L861 240 L801 46 Z" fill="url(#h-cone)" class="h-beam"/><rect x="298" y="64" width="4" height="58" fill="#1E3A78" shape-rendering="crispEdges"/><rect x="294" y="84.3" width="12" height="2" fill="#1E3A78" shape-rendering="crispEdges"/><rect x="292" y="104.6" width="16" height="2" fill="#1E3A78" shape-rendering="crispEdges"/><rect x="283" y="48" width="34" height="16" fill="#12244F" shape-rendering="crispEdges"/><rect x="286" y="50" width="4" height="3" fill="#FFC93C" shape-rendering="crispEdges"  class="h-lamp" style="animation-delay:0.00s"/><rect x="292" y="50" width="4" height="3" fill="#FFC93C" shape-rendering="crispEdges"  class="h-lamp" style="animation-delay:0.12s"/><rect x="298" y="50" width="4" height="3" fill="#FFC93C" shape-rendering="crispEdges"  class="h-lamp" style="animation-delay:0.24s"/><rect x="304" y="50" width="4" height="3" fill="#FFC93C" shape-rendering="crispEdges"  class="h-lamp" style="animation-delay:0.36s"/><rect x="310" y="50" width="4" height="3" fill="#FFC93C" shape-rendering="crispEdges"  class="h-lamp" style="animation-delay:0.48s"/><rect x="286" y="55" width="4" height="3" fill="#FFC93C" shape-rendering="crispEdges"  class="h-lamp" style="animation-delay:0.12s"/><rect x="292" y="55" width="4" height="3" fill="#FFC93C" shape-rendering="crispEdges"  class="h-lamp" style="animation-delay:0.24s"/><rect x="298" y="55" width="4" height="3" fill="#FFC93C" shape-rendering="crispEdges"  class="h-lamp" style="animation-delay:0.36s"/><rect x="304" y="55" width="4" height="3" fill="#FFC93C" shape-rendering="crispEdges"  class="h-lamp" style="animation-delay:0.48s"/><rect x="310" y="55" width="4" height="3" fill="#FFC93C" shape-rendering="crispEdges"  class="h-lamp" style="animation-delay:0.60s"/><rect x="286" y="60" width="4" height="3" fill="#FFC93C" shape-rendering="crispEdges"  class="h-lamp" style="animation-delay:0.24s"/><rect x="292" y="60" width="4" height="3" fill="#FFC93C" shape-rendering="crispEdges"  class="h-lamp" style="animation-delay:0.36s"/><rect x="298" y="60" width="4" height="3" fill="#FFC93C" shape-rendering="crispEdges"  class="h-lamp" style="animation-delay:0.48s"/><rect x="304" y="60" width="4" height="3" fill="#FFC93C" shape-rendering="crispEdges"  class="h-lamp" style="animation-delay:0.60s"/><rect x="310" y="60" width="4" height="3" fill="#FFC93C" shape-rendering="crispEdges"  class="h-lamp" style="animation-delay:0.72s"/><rect x="578" y="64" width="4" height="58" fill="#1E3A78" shape-rendering="crispEdges"/><rect x="574" y="84.3" width="12" height="2" fill="#1E3A78" shape-rendering="crispEdges"/><rect x="572" y="104.6" width="16" height="2" fill="#1E3A78" shape-rendering="crispEdges"/><rect x="563" y="48" width="34" height="16" fill="#12244F" shape-rendering="crispEdges"/><rect x="566" y="50" width="4" height="3" fill="#FFC93C" shape-rendering="crispEdges"  class="h-lamp" style="animation-delay:0.00s"/><rect x="572" y="50" width="4" height="3" fill="#FFC93C" shape-rendering="crispEdges"  class="h-lamp" style="animation-delay:0.12s"/><rect x="578" y="50" width="4" height="3" fill="#FFC93C" shape-rendering="crispEdges"  class="h-lamp" style="animation-delay:0.24s"/><rect x="584" y="50" width="4" height="3" fill="#FFC93C" shape-rendering="crispEdges"  class="h-lamp" style="animation-delay:0.36s"/><rect x="590" y="50" width="4" height="3" fill="#FFC93C" shape-rendering="crispEdges"  class="h-lamp" style="animation-delay:0.48s"/><rect x="566" y="55" width="4" height="3" fill="#FFC93C" shape-rendering="crispEdges"  class="h-lamp" style="animation-delay:0.12s"/><rect x="572" y="55" width="4" height="3" fill="#FFC93C" shape-rendering="crispEdges"  class="h-lamp" style="animation-delay:0.24s"/><rect x="578" y="55" width="4" height="3" fill="#FFC93C" shape-rendering="crispEdges"  class="h-lamp" style="animation-delay:0.36s"/><rect x="584" y="55" width="4" height="3" fill="#FFC93C" shape-rendering="crispEdges"  class="h-lamp" style="animation-delay:0.48s"/><rect x="590" y="55" width="4" height="3" fill="#FFC93C" shape-rendering="crispEdges"  class="h-lamp" style="animation-delay:0.60s"/><rect x="566" y="60" width="4" height="3" fill="#FFC93C" shape-rendering="crispEdges"  class="h-lamp" style="animation-delay:0.24s"/><rect x="572" y="60" width="4" height="3" fill="#FFC93C" shape-rendering="crispEdges"  class="h-lamp" style="animation-delay:0.36s"/><rect x="578" y="60" width="4" height="3" fill="#FFC93C" shape-rendering="crispEdges"  class="h-lamp" style="animation-delay:0.48s"/><rect x="584" y="60" width="4" height="3" fill="#FFC93C" shape-rendering="crispEdges"  class="h-lamp" style="animation-delay:0.60s"/><rect x="590" y="60" width="4" height="3" fill="#FFC93C" shape-rendering="crispEdges"  class="h-lamp" style="animation-delay:0.72s"/><ellipse cx="440" cy="314" rx="500" ry="132" fill="#0F4D2A"/><ellipse cx="440" cy="314" rx="400" ry="104" fill="#17683A" opacity=".55"/><g clip-path="url(#h-turfclip)" opacity=".18"><rect x="0" y="196" width="64" height="124" fill="#093418" shape-rendering="crispEdges"/><rect x="128" y="196" width="64" height="124" fill="#093418" shape-rendering="crispEdges"/><rect x="256" y="196" width="64" height="124" fill="#093418" shape-rendering="crispEdges"/><rect x="384" y="196" width="64" height="124" fill="#093418" shape-rendering="crispEdges"/><rect x="512" y="196" width="64" height="124" fill="#093418" shape-rendering="crispEdges"/><rect x="640" y="196" width="64" height="124" fill="#093418" shape-rendering="crispEdges"/><rect x="768" y="196" width="64" height="124" fill="#093418" shape-rendering="crispEdges"/></g><ellipse cx="440" cy="314" rx="400" ry="104" fill="none" stroke="#EAF2FF" stroke-width="1.5" opacity=".28" stroke-dasharray="5 7"/><path d="M406 222 L474 222 L502 314 L378 314 Z" fill="#C9A56B"/><path d="M406 222 L474 222 L502 314 L378 314 Z" fill="none" stroke="#A8814A" stroke-width="1"/><rect x="400" y="238" width="80" height="2" fill="#EAF2FF" shape-rendering="crispEdges"  opacity=".8"/><rect x="384" y="294" width="112" height="2" fill="#EAF2FF" shape-rendering="crispEdges"  opacity=".8"/><g><path d="M421 202h3v3h-3zM430 202h6v3h-6zM442 202h6v3h-6zM454 202h3v3h-3zM421 205h6v3h-6zM430 205h9v3h-9zM442 205h9v3h-9zM454 205h3v3h-3zM421 208h6v3h-6zM433 208h3v3h-3zM442 208h3v3h-3zM451 208h6v3h-6zM424 211h3v3h-3zM433 211h3v3h-3zM442 211h3v3h-3zM451 211h3v3h-3zM424 214h3v3h-3zM433 214h3v3h-3zM442 214h3v3h-3zM451 214h3v3h-3zM424 217h3v3h-3zM433 217h3v3h-3zM442 217h3v3h-3zM451 217h3v3h-3zM424 220h3v3h-3zM433 220h3v3h-3zM442 220h3v3h-3zM451 220h3v3h-3zM424 223h3v3h-3zM433 223h3v3h-3zM442 223h3v3h-3zM451 223h3v3h-3zM424 226h3v3h-3zM433 226h3v3h-3zM442 226h3v3h-3zM451 226h3v3h-3zM424 229h3v3h-3zM433 229h3v3h-3zM442 229h3v3h-3zM451 229h3v3h-3zM424 232h3v3h-3zM433 232h3v3h-3zM442 232h3v3h-3zM451 232h3v3h-3zM424 235h3v3h-3zM433 235h3v3h-3zM442 235h3v3h-3zM451 235h3v3h-3zM424 238h3v3h-3zM433 238h3v3h-3zM442 238h3v3h-3zM451 238h3v3h-3zM424 241h3v3h-3zM433 241h3v3h-3zM442 241h3v3h-3zM451 241h3v3h-3zM424 244h3v3h-3zM433 244h3v3h-3zM442 244h3v3h-3zM451 244h3v3h-3z" fill="#F4F7FF" shape-rendering="crispEdges"/><path d="M424 247h3v3h-3zM433 247h3v3h-3zM442 247h3v3h-3zM451 247h3v3h-3z" fill="#050B1C" shape-rendering="crispEdges"/></g><g><path d="M414 268h4v4h-4zM426 268h8v4h-8zM442 268h8v4h-8zM458 268h4v4h-4zM414 272h8v4h-8zM426 272h12v4h-12zM442 272h12v4h-12zM458 272h4v4h-4zM414 276h8v4h-8zM430 276h4v4h-4zM442 276h4v4h-4zM454 276h8v4h-8zM418 280h4v4h-4zM430 280h4v4h-4zM442 280h4v4h-4zM454 280h4v4h-4zM418 284h4v4h-4zM430 284h4v4h-4zM442 284h4v4h-4zM454 284h4v4h-4zM418 288h4v4h-4zM430 288h4v4h-4zM442 288h4v4h-4zM454 288h4v4h-4zM418 292h4v4h-4zM430 292h4v4h-4zM442 292h4v4h-4zM454 292h4v4h-4zM418 296h4v4h-4zM430 296h4v4h-4zM442 296h4v4h-4zM454 296h4v4h-4zM418 300h4v4h-4zM430 300h4v4h-4zM442 300h4v4h-4zM454 300h4v4h-4zM418 304h4v4h-4zM430 304h4v4h-4zM442 304h4v4h-4zM454 304h4v4h-4zM418 308h4v4h-4zM430 308h4v4h-4zM442 308h4v4h-4zM454 308h4v4h-4zM418 312h4v4h-4zM430 312h4v4h-4zM442 312h4v4h-4zM454 312h4v4h-4zM418 316h4v4h-4zM430 316h4v4h-4zM442 316h4v4h-4zM454 316h4v4h-4zM418 320h4v4h-4zM430 320h4v4h-4zM442 320h4v4h-4zM454 320h4v4h-4zM418 324h4v4h-4zM430 324h4v4h-4zM442 324h4v4h-4zM454 324h4v4h-4z" fill="#F4F7FF" shape-rendering="crispEdges"/><path d="M418 328h4v4h-4zM430 328h4v4h-4zM442 328h4v4h-4zM454 328h4v4h-4z" fill="#050B1C" shape-rendering="crispEdges"/></g><g class="h-batter"><g class="h-bat"><path d="M242 212h12v3h-12zM242 215h12v3h-12zM242 218h12v3h-12zM242 221h12v3h-12zM242 224h12v3h-12zM242 227h12v3h-12z" fill="#FF4D4D" shape-rendering="crispEdges"/><path d="M239 230h18v3h-18zM236 233h24v3h-24zM236 236h21v3h-21zM236 239h21v3h-21zM236 242h21v3h-21zM236 245h21v3h-21zM236 248h21v3h-21zM236 251h21v3h-21zM236 254h21v3h-21zM236 257h21v3h-21zM236 260h21v3h-21zM236 263h21v3h-21zM239 266h15v3h-15z" fill="#C9A56B" shape-rendering="crispEdges"/><path d="M257 236h3v3h-3zM257 239h3v3h-3zM257 242h3v3h-3zM257 245h3v3h-3zM257 248h3v3h-3zM257 251h3v3h-3zM257 254h3v3h-3zM257 257h3v3h-3zM257 260h3v3h-3zM257 263h3v3h-3zM254 266h3v3h-3z" fill="#A8814A" shape-rendering="crispEdges"/></g><g><path d="M192 190h24v3h-24zM189 193h3v3h-3zM216 193h3v3h-3zM186 196h3v3h-3zM219 196h3v3h-3zM186 199h3v3h-3zM219 199h3v3h-3zM186 202h3v3h-3zM219 202h3v3h-3zM186 205h3v3h-3zM219 205h3v3h-3zM189 208h3v3h-3zM216 208h3v3h-3zM192 211h3v3h-3zM210 211h3v3h-3zM195 214h3v3h-3zM207 214h3v3h-3zM183 268h15v3h-15zM201 268h15v3h-15zM180 271h18v3h-18zM201 271h18v3h-18z" fill="#050B1C" shape-rendering="crispEdges"/><path d="M192 193h24v3h-24zM189 196h30v3h-30zM189 199h3v3h-3zM216 199h3v3h-3zM189 202h3v3h-3zM216 202h3v3h-3zM189 205h3v3h-3z" fill="#2F74FF" shape-rendering="crispEdges"/><path d="M192 199h24v3h-24zM189 244h24v3h-24zM189 259h6v3h-6zM204 259h6v3h-6z" fill="#F4F7FF" shape-rendering="crispEdges"/><path d="M192 202h24v3h-24zM192 205h3v3h-3zM201 205h12v3h-12zM192 208h21v3h-21zM195 211h15v3h-15z" fill="#C68642" shape-rendering="crispEdges"/><path d="M195 205h6v3h-6z" fill="#0B1020" shape-rendering="crispEdges"/><path d="M213 205h6v3h-6zM213 208h3v3h-3z" fill="#9FB4E8" shape-rendering="crispEdges"/><path d="M198 214h9v3h-9zM192 217h21v3h-21zM183 220h39v3h-39zM183 223h15v3h-15zM204 223h18v3h-18zM183 226h15v3h-15zM204 226h18v3h-18zM183 229h39v3h-39zM183 232h36v3h-36zM186 235h30v3h-30z" fill="#1B4FD8" shape-rendering="crispEdges"/><path d="M186 217h6v3h-6zM213 217h6v3h-6zM180 223h3v3h-3zM198 223h6v3h-6zM222 223h3v3h-3zM180 226h3v3h-3zM198 226h6v3h-6zM222 226h3v3h-3zM180 229h3v3h-3zM222 229h3v3h-3zM183 235h3v3h-3zM216 235h3v3h-3z" fill="#FFC93C" shape-rendering="crispEdges"/><path d="M186 238h30v3h-30zM186 241h30v3h-30zM186 244h3v3h-3zM213 244h3v3h-3zM186 247h30v3h-30zM186 250h9v3h-9zM201 250h15v3h-15zM186 253h9v3h-9zM201 253h12v3h-12zM186 256h9v3h-9zM201 256h9v3h-9zM186 259h3v3h-3zM201 259h3v3h-3zM186 262h9v3h-9zM201 262h9v3h-9zM186 265h9v3h-9zM201 265h9v3h-9z" fill="#E8EEFF" shape-rendering="crispEdges"/></g></g><g class="h-bowler"><path d="M682 192h3v3h-3zM679 195h9v3h-9zM682 198h3v3h-3z" fill="#FF4D4D" shape-rendering="crispEdges"/><path d="M667 201h18v3h-18zM664 204h3v3h-3zM685 204h3v3h-3zM664 207h3v3h-3zM685 207h3v3h-3zM664 210h3v3h-3zM682 210h3v3h-3zM664 213h3v3h-3zM679 213h3v3h-3zM667 216h3v3h-3zM679 216h3v3h-3zM646 261h9v3h-9zM688 261h9v3h-9zM643 264h12v3h-12zM691 264h12v3h-12z" fill="#050B1C" shape-rendering="crispEdges"/><path d="M667 204h18v3h-18z" fill="#1A1208" shape-rendering="crispEdges"/><path d="M667 207h3v3h-3zM673 207h3v3h-3zM679 207h3v3h-3z" fill="#FF9933" shape-rendering="crispEdges"/><path d="M670 207h3v3h-3zM676 207h3v3h-3zM682 207h3v3h-3z" fill="#138808" shape-rendering="crispEdges"/><path d="M667 210h15v3h-15zM667 213h3v3h-3zM676 213h3v3h-3zM670 216h9v3h-9z" fill="#C68642" shape-rendering="crispEdges"/><path d="M670 213h6v3h-6z" fill="#0B1020" shape-rendering="crispEdges"/><path d="M667 219h12v3h-12zM661 222h21v3h-21zM652 225h39v3h-39zM652 228h15v3h-15zM673 228h18v3h-18zM652 231h36v3h-36zM655 234h30v3h-30z" fill="#1B4FD8" shape-rendering="crispEdges"/><path d="M655 222h6v3h-6zM682 222h6v3h-6zM649 228h3v3h-3zM667 228h6v3h-6zM691 228h3v3h-3zM652 234h3v3h-3zM685 234h3v3h-3z" fill="#FFC93C" shape-rendering="crispEdges"/><path d="M655 237h24v3h-24zM655 240h24v3h-24zM655 243h9v3h-9zM670 243h9v3h-9zM655 246h9v3h-9zM673 246h9v3h-9zM652 249h9v3h-9zM676 249h9v3h-9zM652 252h6v3h-6zM679 252h9v3h-9zM649 255h9v3h-9zM682 255h9v3h-9zM649 258h6v3h-6zM685 258h9v3h-9z" fill="#F4F7FF" shape-rendering="crispEdges"/></g><g class="h-ball"><g><path d="M3 0h12v3h-12zM0 3h6v3h-6zM12 3h6v3h-6zM0 6h3v3h-3zM6 6h6v3h-6zM15 6h3v3h-3zM0 9h3v3h-3zM6 9h6v3h-6zM15 9h3v3h-3zM0 12h6v3h-6zM12 12h6v3h-6zM3 15h12v3h-12z" fill="#FF4D4D" shape-rendering="crispEdges"/><path d="M6 3h6v3h-6zM3 6h3v3h-3zM12 6h3v3h-3zM3 9h3v3h-3zM12 9h3v3h-3zM6 12h6v3h-6z" fill="#F4F7FF" shape-rendering="crispEdges"/></g></g><rect x="140" y="300" width="120" height="3" fill="#2F74FF" shape-rendering="crispEdges"  opacity=".8"/><g transform="translate(152.8 308) scale(1.6)" fill="#F4F7FF" shape-rendering="crispEdges"><use href="#g84" x="0"/><use href="#g72" x="6"/><use href="#g69" x="12"/><use href="#g65" x="24"/><use href="#g78" x="30"/><use href="#g67" x="36"/><use href="#g72" x="42"/><use href="#g79" x="48"/><use href="#g82" x="54"/></g><g transform="translate(183.9 320) scale(1.4)" fill="#2F74FF" shape-rendering="crispEdges"><use href="#g35" x="0"/><use href="#g52" x="6"/><use href="#g48" x="12"/><use href="#g52" x="18"/></g><rect x="620" y="300" width="120" height="3" fill="#FF9933" shape-rendering="crispEdges"  opacity=".8"/><g transform="translate(618.4 308) scale(1.6)" fill="#F4F7FF" shape-rendering="crispEdges"><use href="#g84" x="0"/><use href="#g72" x="6"/><use href="#g69" x="12"/><use href="#g83" x="24"/><use href="#g80" x="30"/><use href="#g69" x="36"/><use href="#g69" x="42"/><use href="#g68" x="48"/><use href="#g83" x="54"/><use href="#g84" x="60"/><use href="#g69" x="66"/><use href="#g82" x="72"/></g><g transform="translate(663.9 320) scale(1.4)" fill="#FF9933" shape-rendering="crispEdges"><use href="#g35" x="0"/><use href="#g53" x="6"/><use href="#g48" x="12"/><use href="#g48" x="18"/></g><g class="h-title"><g opacity="0.55"><g transform="translate(357 40) scale(6)" fill="#000" shape-rendering="crispEdges"><use href="#g83" x="0"/><use href="#g85" x="6"/><use href="#g72" x="12"/><use href="#g65" x="18"/><use href="#g83" x="24"/></g></g><g transform="translate(353 36) scale(6)" fill="#FFC93C" shape-rendering="crispEdges"><use href="#g83" x="0"/><use href="#g85" x="6"/><use href="#g72" x="12"/><use href="#g65" x="18"/><use href="#g83" x="24"/></g></g><rect x="353" y="88" width="58" height="3" fill="#FF9933" shape-rendering="crispEdges"  class="h-rule"/><rect x="411" y="88" width="58" height="3" fill="#F4F7FF" shape-rendering="crispEdges"  class="h-rule" style="animation-delay:.15s"/><rect x="469" y="88" width="58" height="3" fill="#138808" shape-rendering="crispEdges"  class="h-rule" style="animation-delay:.3s"/><g class="h-sub"><g transform="translate(285 100) scale(2)" fill="#5AC8FA" shape-rendering="crispEdges"><use href="#g65" x="0"/><use href="#g73" x="6"/><use href="#g47" x="12"/><use href="#g77" x="18"/><use href="#g76" x="24"/><use href="#g69" x="36"/><use href="#g78" x="42"/><use href="#g71" x="48"/><use href="#g73" x="54"/><use href="#g78" x="60"/><use href="#g69" x="66"/><use href="#g69" x="72"/><use href="#g82" x="78"/><use href="#g73" x="90"/><use href="#g78" x="96"/><use href="#g84" x="108"/><use href="#g82" x="114"/><use href="#g65" x="120"/><use href="#g73" x="126"/><use href="#g78" x="132"/><use href="#g73" x="138"/><use href="#g78" x="144"/><use href="#g71" x="150"/></g></g><g class="h-sub" style="animation-delay:.5s"><g transform="translate(215.2 118) scale(1.6)" fill="#8FA6D8" shape-rendering="crispEdges"><use href="#g70" x="0"/><use href="#g82" x="6"/><use href="#g79" x="12"/><use href="#g77" x="18"/><use href="#g87" x="30"/><use href="#g79" x="36"/><use href="#g82" x="42"/><use href="#g75" x="48"/><use href="#g83" x="54"/><use href="#g79" x="66"/><use href="#g78" x="72"/><use href="#g77" x="84"/><use href="#g89" x="90"/><use href="#g77" x="102"/><use href="#g65" x="108"/><use href="#g67" x="114"/><use href="#g72" x="120"/><use href="#g73" x="126"/><use href="#g78" x="132"/><use href="#g69" x="138"/><use href="#g84" x="150"/><use href="#g79" x="156"/><use href="#g87" x="168"/><use href="#g79" x="174"/><use href="#g82" x="180"/><use href="#g75" x="186"/><use href="#g83" x="192"/><use href="#g73" x="204"/><use href="#g78" x="210"/><use href="#g80" x="222"/><use href="#g82" x="228"/><use href="#g79" x="234"/><use href="#g68" x="240"/><use href="#g85" x="246"/><use href="#g67" x="252"/><use href="#g84" x="258"/><use href="#g73" x="264"/><use href="#g79" x="270"/><use href="#g78" x="276"/></g></g><rect x="20" y="18" width="158" height="26" fill="#0D1E45" shape-rendering="crispEdges"  stroke="#1E3A78" stroke-width="1"/><circle cx="34" cy="31" r="4" fill="#2ECC71" class="h-dot"/><g transform="translate(46 27) scale(1.6)" fill="#2ECC71" shape-rendering="crispEdges"><use href="#g77" x="0"/><use href="#g65" x="6"/><use href="#g84" x="12"/><use href="#g67" x="18"/><use href="#g72" x="24"/><use href="#g76" x="36"/><use href="#g73" x="42"/><use href="#g86" x="48"/><use href="#g69" x="54"/></g><g opacity=".9"><rect x="702" y="18" width="158" height="26" fill="#0D1E45" shape-rendering="crispEdges"  stroke="#1E3A78" stroke-width="1"/><g transform="translate(729 26) scale(1.6)" fill="#FFC93C" shape-rendering="crispEdges"><use href="#g83" x="0"/><use href="#g69" x="6"/><use href="#g65" x="12"/><use href="#g83" x="18"/><use href="#g79" x="24"/><use href="#g78" x="30"/><use href="#g50" x="42"/><use href="#g48" x="48"/><use href="#g50" x="54"/><use href="#g54" x="60"/></g></g><text x="781" y="58" font-size="9" fill="#5C74A8" text-anchor="middle" font-weight="400" letter-spacing="1.5">INDIA</text></svg>