<svg xmlns="http://www.w3.org/2000/svg" width="880" height="320" viewBox="0 0 880 320" role="img" aria-labelledby="t d" font-family="'DejaVu Sans Mono','Liberation Mono','Courier New',monospace"><title id="t">SUHAS — career record</title><desc id="d">Batting: 9 matches, 198 runs at 3.96. Bowling: 6 wickets from 0 overs.</desc><style>@keyframes pc-flicker{0%,96%,100%{opacity:1}97%{opacity:.55}98%{opacity:.9}}@keyframes pc-pulse{0%,100%{opacity:.85}50%{opacity:1}}@keyframes pc-pop{0%{opacity:0;transform:scaleX(0)}100%{opacity:1;transform:scaleX(1)}}@keyframes pc-blink{0%,49%{opacity:1}50%,100%{opacity:.15}}@keyframes pc-rise{0%{opacity:0;transform:translateY(6px)}100%{opacity:1;transform:translateY(0)}}.pc-lamp{animation:pc-flicker 4s infinite}.pc-beam{animation:pc-pulse 6s ease-in-out infinite}@keyframes pc-bob{0%,100%{transform:translateY(0)}50%{transform:translateY(-3px)}}.pc-idle{animation:pc-bob 3.2s ease-in-out infinite}.pc-row{animation:pc-rise .5s ease-out both}@media (prefers-reduced-motion:reduce){*{animation:none!important;transition:none!important}}</style><defs><path id="g80" d="M0 0h1v7h-1zM1 0h1v1h-1zM1 3h1v1h-1zM2 0h1v1h-1zM2 3h1v1h-1zM3 0h1v1h-1zM3 3h1v1h-1zM4 1h1v2h-1z"/><path id="g76" d="M0 0h1v7h-1zM1 6h1v1h-1zM2 6h1v1h-1zM3 6h1v1h-1zM4 6h1v1h-1z"/><path id="g65" d="M0 1h1v6h-1zM1 0h1v1h-1zM1 4h1v1h-1zM2 0h1v1h-1zM2 4h1v1h-1zM3 0h1v1h-1zM3 4h1v1h-1zM4 1h1v6h-1z"/><path id="g89" d="M0 0h1v2h-1zM1 2h1v1h-1zM2 3h1v4h-1zM3 2h1v1h-1zM4 0h1v2h-1z"/><path id="g69" d="M0 0h1v7h-1zM1 0h1v1h-1zM1 3h1v1h-1zM1 6h1v1h-1zM2 0h1v1h-1zM2 3h1v1h-1zM2 6h1v1h-1zM3 0h1v1h-1zM3 3h1v1h-1zM3 6h1v1h-1zM4 0h1v1h-1zM4 6h1v1h-1z"/><path id="g82" d="M0 0h1v7h-1zM1 0h1v1h-1zM1 3h1v1h-1zM2 0h1v1h-1zM2 3h1v2h-1zM3 0h1v1h-1zM3 3h1v1h-1zM3 5h1v1h-1zM4 1h1v2h-1zM4 6h1v1h-1z"/><path id="g79" d="M0 1h1v5h-1zM1 0h1v1h-1zM1 6h1v1h-1zM2 0h1v1h-1zM2 6h1v1h-1zM3 0h1v1h-1zM3 6h1v1h-1zM4 1h1v5h-1z"/><path id="g70" d="M0 0h1v7h-1zM1 0h1v1h-1zM1 3h1v1h-1zM2 0h1v1h-1zM2 3h1v1h-1zM3 0h1v1h-1zM4 0h1v1h-1z"/><path id="g73" d="M1 0h1v1h-1zM1 6h1v1h-1zM2 0h1v7h-1zM3 0h1v1h-1zM3 6h1v1h-1z"/><path id="g83" d="M0 1h1v2h-1zM0 6h1v1h-1zM1 0h1v1h-1zM1 3h1v1h-1zM1 6h1v1h-1zM2 0h1v1h-1zM2 3h1v1h-1zM2 6h1v1h-1zM3 0h1v1h-1zM3 3h1v1h-1zM3 6h1v1h-1zM4 0h1v1h-1zM4 4h1v2h-1z"/><path id="g85" d="M0 0h1v6h-1zM1 6h1v1h-1zM2 6h1v1h-1zM3 6h1v1h-1zM4 0h1v6h-1z"/><path id="g72" d="M0 0h1v7h-1zM1 3h1v1h-1zM2 3h1v1h-1zM3 3h1v1h-1zM4 0h1v7h-1z"/><path id="g66" d="M0 0h1v7h-1zM1 0h1v1h-1zM1 3h1v1h-1zM1 6h1v1h-1zM2 0h1v1h-1zM2 3h1v1h-1zM2 6h1v1h-1zM3 0h1v1h-1zM3 3h1v1h-1zM3 6h1v1h-1zM4 1h1v2h-1zM4 4h1v2h-1z"/><path id="g84" d="M0 0h1v1h-1zM1 0h1v1h-1zM2 0h1v7h-1zM3 0h1v1h-1zM4 0h1v1h-1z"/><path id="g78" d="M0 0h1v7h-1zM1 2h1v1h-1zM2 3h1v1h-1zM3 4h1v1h-1zM4 0h1v7h-1z"/><path id="g71" d="M0 1h1v5h-1zM1 0h1v1h-1zM1 6h1v1h-1zM2 0h1v1h-1zM2 6h1v1h-1zM3 0h1v1h-1zM3 4h1v1h-1zM3 6h1v1h-1zM4 1h1v1h-1zM4 4h1v2h-1z"/><path id="g57" d="M0 1h1v2h-1zM1 0h1v1h-1zM1 3h1v1h-1zM1 6h1v1h-1zM2 0h1v1h-1zM2 3h1v1h-1zM2 6h1v1h-1zM3 0h1v1h-1zM3 3h1v1h-1zM3 5h1v1h-1zM4 1h1v4h-1z"/><path id="g53" d="M0 0h1v3h-1zM0 5h1v1h-1zM1 0h1v1h-1zM1 2h1v1h-1zM1 6h1v1h-1zM2 0h1v1h-1zM2 2h1v1h-1zM2 6h1v1h-1zM3 0h1v1h-1zM3 2h1v1h-1zM3 6h1v1h-1zM4 0h1v1h-1zM4 3h1v3h-1z"/><path id="g48" d="M0 1h1v5h-1zM1 0h1v1h-1zM1 4h1v1h-1zM1 6h1v1h-1zM2 0h1v1h-1zM2 3h1v1h-1zM2 6h1v1h-1zM3 0h1v1h-1zM3 2h1v1h-1zM3 6h1v1h-1zM4 1h1v5h-1z"/><path id="g49" d="M1 1h1v1h-1zM1 6h1v1h-1zM2 0h1v7h-1zM3 6h1v1h-1z"/><path id="g56" d="M0 1h1v2h-1zM0 4h1v2h-1zM1 0h1v1h-1zM1 3h1v1h-1zM1 6h1v1h-1zM2 0h1v1h-1zM2 3h1v1h-1zM2 6h1v1h-1zM3 0h1v1h-1zM3 3h1v1h-1zM3 6h1v1h-1zM4 1h1v2h-1zM4 4h1v2h-1z"/><path id="g50" d="M0 1h1v1h-1zM0 6h1v1h-1zM1 0h1v1h-1zM1 5h1v2h-1zM2 0h1v1h-1zM2 4h1v1h-1zM2 6h1v1h-1zM3 0h1v1h-1zM3 3h1v1h-1zM3 6h1v1h-1zM4 1h1v2h-1zM4 6h1v1h-1z"/><path id="g42" d="M0 2h1v1h-1zM0 4h1v1h-1zM1 3h1v1h-1zM2 1h1v5h-1zM3 3h1v1h-1zM4 2h1v1h-1zM4 4h1v1h-1z"/><path id="g51" d="M0 0h1v1h-1zM0 5h1v1h-1zM1 0h1v1h-1zM1 6h1v1h-1zM2 0h1v1h-1zM2 2h1v1h-1zM2 6h1v1h-1zM3 0h1v2h-1zM3 3h1v1h-1zM3 6h1v1h-1zM4 0h1v1h-1zM4 4h1v2h-1z"/><path id="g46" d="M1 5h1v2h-1zM2 5h1v2h-1z"/><path id="g54" d="M0 2h1v4h-1zM1 1h1v1h-1zM1 3h1v1h-1zM1 6h1v1h-1zM2 0h1v1h-1zM2 3h1v1h-1zM2 6h1v1h-1zM3 0h1v1h-1zM3 3h1v1h-1zM3 6h1v1h-1zM4 4h1v2h-1z"/><path id="g52" d="M0 3h1v2h-1zM1 2h1v1h-1zM1 4h1v1h-1zM2 1h1v1h-1zM2 4h1v1h-1zM3 0h1v7h-1zM4 4h1v1h-1z"/><path id="g87" d="M0 0h1v7h-1zM1 5h1v1h-1zM2 3h1v2h-1zM3 5h1v1h-1zM4 0h1v7h-1z"/><path id="g38" d="M0 1h1v2h-1zM0 4h1v2h-1zM1 0h1v1h-1zM1 3h1v1h-1zM1 6h1v1h-1zM2 0h1v1h-1zM2 2h1v1h-1zM2 4h1v1h-1zM2 6h1v1h-1zM3 1h1v1h-1zM3 5h1v1h-1zM4 4h1v1h-1zM4 6h1v1h-1z"/><path id="g68" d="M0 0h1v7h-1zM1 0h1v1h-1zM1 6h1v1h-1zM2 0h1v1h-1zM2 6h1v1h-1zM3 1h1v1h-1zM3 5h1v1h-1zM4 2h1v3h-1z"/><path id="g47" d="M0 5h1v1h-1zM1 4h1v1h-1zM2 3h1v1h-1zM3 2h1v1h-1zM4 1h1v1h-1z"/><radialGradient id="pc-spot"><stop offset="0" stop-color="#2F74FF" stop-opacity=".38"/><stop offset="1" stop-color="#2F74FF" stop-opacity="0"/></radialGradient></defs><rect x="0" y="0" width="880" height="320" fill="#02060F" shape-rendering="crispEdges"/><polygon points="16,10 864,10 870,16 870,304 864,310 16,310 10,304 10,16" fill="#0D1E45" stroke="#1E3A78" stroke-width="2"/><polygon points="16,10 864,10 870,16 870,304 864,310 16,310 10,304 10,16" fill="none" stroke="#1B4FD8" stroke-width="1" opacity=".35" transform="translate(0,1)"/><rect x="24" y="24" width="832" height="26" fill="#12244F" shape-rendering="crispEdges"/><rect x="24" y="24" width="4" height="26" fill="#FFC93C" shape-rendering="crispEdges"/><g transform="translate(40 32) scale(1.7)" fill="#FFC93C" shape-rendering="crispEdges"><use href="#g80" x="0"/><use href="#g76" x="6"/><use href="#g65" x="12"/><use href="#g89" x="18"/><use href="#g69" x="24"/><use href="#g82" x="30"/><use href="#g80" x="42"/><use href="#g82" x="48"/><use href="#g79" x="54"/><use href="#g70" x="60"/><use href="#g73" x="66"/><use href="#g76" x="72"/><use href="#g69" x="78"/></g><text x="846" y="42" font-size="10" fill="#5C74A8" text-anchor="end" font-weight="400" letter-spacing="1.4">CAREER RECORD — ALL FORMATS</text><rect x="34" y="64" width="200" height="222" fill="#0A1A3C" shape-rendering="crispEdges"  stroke="#1E3A78" stroke-width="1"/><ellipse cx="134" cy="124" rx="66" ry="62" fill="url(#pc-spot)"/><g class="pc-idle"><path d="M122 80h24v3h-24zM119 83h3v3h-3zM146 83h3v3h-3zM116 86h3v3h-3zM149 86h3v3h-3zM116 89h3v3h-3zM149 89h3v3h-3zM116 92h3v3h-3zM149 92h3v3h-3zM116 95h3v3h-3zM149 95h3v3h-3zM119 98h3v3h-3zM146 98h3v3h-3zM122 101h3v3h-3zM140 101h3v3h-3zM125 104h3v3h-3zM137 104h3v3h-3zM113 158h15v3h-15zM131 158h15v3h-15zM110 161h18v3h-18zM131 161h18v3h-18z" fill="#050B1C" shape-rendering="crispEdges"/><path d="M122 83h24v3h-24zM119 86h30v3h-30zM119 89h3v3h-3zM146 89h3v3h-3zM119 92h3v3h-3zM146 92h3v3h-3zM119 95h3v3h-3z" fill="#2F74FF" shape-rendering="crispEdges"/><path d="M122 89h24v3h-24zM119 134h24v3h-24zM119 149h6v3h-6zM134 149h6v3h-6z" fill="#F4F7FF" shape-rendering="crispEdges"/><path d="M122 92h24v3h-24zM122 95h3v3h-3zM131 95h12v3h-12zM122 98h21v3h-21zM125 101h15v3h-15z" fill="#C68642" shape-rendering="crispEdges"/><path d="M125 95h6v3h-6z" fill="#0B1020" shape-rendering="crispEdges"/><path d="M143 95h6v3h-6zM143 98h3v3h-3z" fill="#9FB4E8" shape-rendering="crispEdges"/><path d="M128 104h9v3h-9zM122 107h21v3h-21zM113 110h39v3h-39zM113 113h15v3h-15zM134 113h18v3h-18zM113 116h15v3h-15zM134 116h18v3h-18zM113 119h39v3h-39zM113 122h36v3h-36zM116 125h30v3h-30z" fill="#1B4FD8" shape-rendering="crispEdges"/><path d="M116 107h6v3h-6zM143 107h6v3h-6zM110 113h3v3h-3zM128 113h6v3h-6zM152 113h3v3h-3zM110 116h3v3h-3zM128 116h6v3h-6zM152 116h3v3h-3zM110 119h3v3h-3zM152 119h3v3h-3zM113 125h3v3h-3zM146 125h3v3h-3z" fill="#FFC93C" shape-rendering="crispEdges"/><path d="M116 128h30v3h-30zM116 131h30v3h-30zM116 134h3v3h-3zM143 134h3v3h-3zM116 137h30v3h-30zM116 140h9v3h-9zM131 140h15v3h-15zM116 143h9v3h-9zM131 143h12v3h-12zM116 146h9v3h-9zM131 146h9v3h-9zM116 149h3v3h-3zM131 149h3v3h-3zM116 152h9v3h-9zM131 152h9v3h-9zM116 155h9v3h-9zM131 155h9v3h-9z" fill="#E8EEFF" shape-rendering="crispEdges"/></g><g><path d="M52 76h12v2h-12zM50 78h16v2h-16zM48 80h4v2h-4zM64 80h4v2h-4zM46 82h24v2h-24zM46 84h24v2h-24z" fill="#2F74FF" shape-rendering="crispEdges"/><path d="M52 80h12v2h-12z" fill="#FFC93C" shape-rendering="crispEdges"/><path d="M48 86h20v2h-20z" fill="#050B1C" shape-rendering="crispEdges"/></g><rect x="34" y="178" width="200" height="1" fill="#1E3A78" shape-rendering="crispEdges"/><g transform="translate(96.3 188) scale(2.6)" fill="#F4F7FF" shape-rendering="crispEdges"><use href="#g83" x="0"/><use href="#g85" x="6"/><use href="#g72" x="12"/><use href="#g65" x="18"/><use href="#g83" x="24"/></g><text x="134" y="224" font-size="10" fill="#5AC8FA" text-anchor="middle" font-weight="400" letter-spacing="1.4">AI/ML ENGINEER IN TRAINING</text><text x="134" y="240" font-size="10" fill="#FFC93C" text-anchor="middle" font-weight="400" letter-spacing="1.4">CAP No. 404</text><text x="134" y="256" font-size="9" fill="#5C74A8" text-anchor="middle" font-weight="400">DEBUT 2024-12-26</text><rect x="262" y="64" width="300" height="22" fill="#12244F" shape-rendering="crispEdges"/><rect x="262" y="64" width="3" height="22" fill="#FFC93C" shape-rendering="crispEdges"/><g transform="translate(274 72) scale(1.5)" fill="#FFC93C" shape-rendering="crispEdges"><use href="#g66" x="0"/><use href="#g65" x="6"/><use href="#g84" x="12"/><use href="#g84" x="18"/><use href="#g73" x="24"/><use href="#g78" x="30"/><use href="#g71" x="36"/></g><rect x="262" y="90" width="300" height="22" fill="#0A1A3C" shape-rendering="crispEdges"  opacity=".55"/><g class="pc-row" style="animation-delay:0.00s"><text x="274" y="106" font-size="11" fill="#8FA6D8" text-anchor="start" font-weight="400" letter-spacing="1.2">MAT</text><g transform="translate(540.5 98) scale(1.9)" fill="#F4F7FF" shape-rendering="crispEdges"><use href="#g57" x="0"/></g></g><g class="pc-row" style="animation-delay:0.05s"><text x="274" y="130" font-size="11" fill="#8FA6D8" text-anchor="start" font-weight="400" letter-spacing="1.2">INN</text><g transform="translate(529.1 122) scale(1.9)" fill="#F4F7FF" shape-rendering="crispEdges"><use href="#g53" x="0"/><use href="#g48" x="6"/></g></g><rect x="262" y="138" width="300" height="22" fill="#0A1A3C" shape-rendering="crispEdges"  opacity=".55"/><g class="pc-row" style="animation-delay:0.10s"><text x="274" y="154" font-size="11" fill="#8FA6D8" text-anchor="start" font-weight="400" letter-spacing="1.2">RUNS</text><g transform="translate(517.7 146) scale(1.9)" fill="#F4F7FF" shape-rendering="crispEdges"><use href="#g49" x="0"/><use href="#g57" x="6"/><use href="#g56" x="12"/></g></g><g class="pc-row" style="animation-delay:0.15s"><text x="274" y="178" font-size="11" fill="#8FA6D8" text-anchor="start" font-weight="400" letter-spacing="1.2">HS</text><g transform="translate(517.7 170) scale(1.9)" fill="#F4F7FF" shape-rendering="crispEdges"><use href="#g50" x="0"/><use href="#g49" x="6"/><use href="#g42" x="12"/></g></g><rect x="262" y="186" width="300" height="22" fill="#0A1A3C" shape-rendering="crispEdges"  opacity=".55"/><g class="pc-row" style="animation-delay:0.20s"><text x="274" y="202" font-size="11" fill="#8FA6D8" text-anchor="start" font-weight="400" letter-spacing="1.2">AVG</text><g transform="translate(506.3 194) scale(1.9)" fill="#F4F7FF" shape-rendering="crispEdges"><use href="#g51" x="0"/><use href="#g46" x="6"/><use href="#g57" x="12"/><use href="#g54" x="18"/></g></g><g class="pc-row" style="animation-delay:0.25s"><text x="274" y="226" font-size="11" fill="#8FA6D8" text-anchor="start" font-weight="400" letter-spacing="1.2">SR</text><g transform="translate(506.3 218) scale(1.9)" fill="#F4F7FF" shape-rendering="crispEdges"><use href="#g51" x="0"/><use href="#g51" x="6"/><use href="#g46" x="12"/><use href="#g52" x="18"/></g></g><rect x="262" y="234" width="300" height="22" fill="#0A1A3C" shape-rendering="crispEdges"  opacity=".55"/><g class="pc-row" style="animation-delay:0.30s"><text x="274" y="250" font-size="11" fill="#8FA6D8" text-anchor="start" font-weight="400" letter-spacing="1.2">100s</text><g transform="translate(540.5 242) scale(1.9)" fill="#F4F7FF" shape-rendering="crispEdges"><use href="#g49" x="0"/></g></g><g class="pc-row" style="animation-delay:0.35s"><text x="274" y="274" font-size="11" fill="#8FA6D8" text-anchor="start" font-weight="400" letter-spacing="1.2">50s</text><g transform="translate(540.5 266) scale(1.9)" fill="#F4F7FF" shape-rendering="crispEdges"><use href="#g48" x="0"/></g></g><rect x="582" y="64" width="300" height="22" fill="#12244F" shape-rendering="crispEdges"/><rect x="582" y="64" width="3" height="22" fill="#FF9933" shape-rendering="crispEdges"/><g transform="translate(594 72) scale(1.5)" fill="#FF9933" shape-rendering="crispEdges"><use href="#g66" x="0"/><use href="#g79" x="6"/><use href="#g87" x="12"/><use href="#g76" x="18"/><use href="#g73" x="24"/><use href="#g78" x="30"/><use href="#g71" x="36"/><use href="#g38" x="48"/><use href="#g70" x="60"/><use href="#g73" x="66"/><use href="#g69" x="72"/><use href="#g76" x="78"/><use href="#g68" x="84"/><use href="#g73" x="90"/><use href="#g78" x="96"/><use href="#g71" x="102"/></g><rect x="582" y="90" width="300" height="22" fill="#0A1A3C" shape-rendering="crispEdges"  opacity=".55"/><g class="pc-row" style="animation-delay:0.00s"><text x="594" y="106" font-size="11" fill="#8FA6D8" text-anchor="start" font-weight="400" letter-spacing="1.2">OVR</text><g transform="translate(860.5 98) scale(1.9)" fill="#F4F7FF" shape-rendering="crispEdges"><use href="#g48" x="0"/></g></g><g class="pc-row" style="animation-delay:0.05s"><text x="594" y="130" font-size="11" fill="#8FA6D8" text-anchor="start" font-weight="400" letter-spacing="1.2">WKT</text><g transform="translate(860.5 122) scale(1.9)" fill="#F4F7FF" shape-rendering="crispEdges"><use href="#g54" x="0"/></g></g><rect x="582" y="138" width="300" height="22" fill="#0A1A3C" shape-rendering="crispEdges"  opacity=".55"/><g class="pc-row" style="animation-delay:0.10s"><text x="594" y="154" font-size="11" fill="#8FA6D8" text-anchor="start" font-weight="400" letter-spacing="1.2">RUNS</text><g transform="translate(860.5 146) scale(1.9)" fill="#F4F7FF" shape-rendering="crispEdges"><use href="#g48" x="0"/></g></g><g class="pc-row" style="animation-delay:0.15s"><text x="594" y="178" font-size="11" fill="#8FA6D8" text-anchor="start" font-weight="400" letter-spacing="1.2">ECON</text><g transform="translate(826.3 170) scale(1.9)" fill="#F4F7FF" shape-rendering="crispEdges"><use href="#g48" x="0"/><use href="#g46" x="6"/><use href="#g48" x="12"/><use href="#g48" x="18"/></g></g><rect x="582" y="186" width="300" height="22" fill="#0A1A3C" shape-rendering="crispEdges"  opacity=".55"/><g class="pc-row" style="animation-delay:0.20s"><text x="594" y="202" font-size="11" fill="#8FA6D8" text-anchor="start" font-weight="400" letter-spacing="1.2">AVG</text><g transform="translate(826.3 194) scale(1.9)" fill="#F4F7FF" shape-rendering="crispEdges"><use href="#g48" x="0"/><use href="#g46" x="6"/><use href="#g48" x="12"/><use href="#g48" x="18"/></g></g><g class="pc-row" style="animation-delay:0.25s"><text x="594" y="226" font-size="11" fill="#8FA6D8" text-anchor="start" font-weight="400" letter-spacing="1.2">5W</text><g transform="translate(860.5 218) scale(1.9)" fill="#F4F7FF" shape-rendering="crispEdges"><use href="#g49" x="0"/></g></g><rect x="582" y="234" width="300" height="22" fill="#0A1A3C" shape-rendering="crispEdges"  opacity=".55"/><g class="pc-row" style="animation-delay:0.30s"><text x="594" y="250" font-size="11" fill="#8FA6D8" text-anchor="start" font-weight="400" letter-spacing="1.2">CT</text><g transform="translate(860.5 242) scale(1.9)" fill="#F4F7FF" shape-rendering="crispEdges"><use href="#g48" x="0"/></g></g><g class="pc-row" style="animation-delay:0.35s"><text x="594" y="274" font-size="11" fill="#8FA6D8" text-anchor="start" font-weight="400" letter-spacing="1.2">4s / 6s</text><g transform="translate(814.9 266) scale(1.9)" fill="#F4F7FF" shape-rendering="crispEdges"><use href="#g54" x="0"/><use href="#g47" x="12"/><use href="#g48" x="24"/></g></g></svg>