<svg width="1000" height="250" viewBox="0 0 1000 250" xmlns="http://www.w3.org/2000/svg">
  <defs>
    <linearGradient id="bgGrad" x1="0%" y1="0%" x2="100%" y2="0%">
      <stop offset="0%" stop-color="#000080" stop-opacity="0.9" />
      <stop offset="100%" stop-color="#0082c4" stop-opacity="0.9" />
    </linearGradient>

    <linearGradient id="barGrad" x1="0%" y1="0%" x2="100%" y2="0%">
      <stop offset="0%" stop-color="#ff9933" />
      <stop offset="100%" stop-color="#ffcc00" />
    </linearGradient>

    <style>
      .title { font-family: 'Segoe UI', Arial, sans-serif; font-weight: 800; font-size: 22px; fill: #ffffff; letter-spacing: 2px; }
      .lang-name { font-family: 'Segoe UI', Arial, sans-serif; font-weight: 600; font-size: 16px; fill: #ffffff; }
      .lang-pct { font-family: 'Courier New', Courier, monospace; font-weight: bold; font-size: 16px; fill: #ffffff; }
      
      @keyframes growBar {
        0% { transform: scaleX(0); }
        100% { transform: scaleX(1); }
      }
      .anim-bar { transform-origin: left center; animation: growBar 1.5s ease-out forwards; }
    </style>
  </defs>

  <!-- Broadcast Graphic Background -->
  <rect x="50" y="20" width="900" height="210" fill="url(#bgGrad)" rx="10" stroke="#ff9933" stroke-width="3" />
  
  <!-- Header -->
  <rect x="50" y="20" width="300" height="40" fill="#ff9933" rx="10" />
  <rect x="50" y="40" width="300" height="20" fill="#ff9933" /> <!-- Square bottom corners -->
  <text x="70" y="47" class="title" fill="#000080">BATTING AVERAGE</text>
  <text x="370" y="47" class="title" fill="#fff" font-size="16">(TOP LANGUAGES)</text>

  <!-- List of Languages -->
  <g transform="translate(80, 80)">
    <!-- Top 1 -->
    <text x="0" y="15" class="lang-name">TYPESCRIPT</text>
    <rect x="120" y="2" width="238" height="16" fill="url(#barGrad)" rx="3" class="anim-bar" style="animation-delay: 0.2s" />
    <text x="368" y="15" class="lang-pct">34%</text>

    <!-- Top 2 -->
    <text x="0" y="45" class="lang-name">PYTHON</text>
    <rect x="120" y="32" width="231" height="16" fill="url(#barGrad)" rx="3" class="anim-bar" style="animation-delay: 0.4s" />
    <text x="361" y="45" class="lang-pct">33%</text>

    <!-- Top 3 -->
    <text x="0" y="75" class="lang-name">JAVASCRIPT</text>
    <rect x="120" y="62" width="203" height="16" fill="url(#barGrad)" rx="3" class="anim-bar" style="animation-delay: 0.6s" />
    <text x="333" y="75" class="lang-pct">29%</text>

    <!-- Top 4 -->
    <text x="0" y="105" class="lang-name">CSS</text>
    <rect x="120" y="92" width="14" height="16" fill="url(#barGrad)" rx="3" class="anim-bar" style="animation-delay: 0.8s" />
    <text x="144" y="105" class="lang-pct">2%</text>

    <!-- Top 5 -->
    <text x="0" y="135" class="lang-name">HTML</text>
    <rect x="120" y="122" width="14" height="16" fill="url(#barGrad)" rx="3" class="anim-bar" style="animation-delay: 1.0s" />
    <text x="144" y="135" class="lang-pct">2%</text>
  </g>
</svg>
