<svg width="1000" height="250" viewBox="0 0 1000 250" xmlns="http://www.w3.org/2000/svg">
  <defs>
    <linearGradient id="bgGrad" x1="0%" y1="0%" x2="100%" y2="0%">
      <stop offset="0%" stop-color="#020111" stop-opacity="0.9" />
      <stop offset="100%" stop-color="#111" stop-opacity="0.9" />
    </linearGradient>

    <radialGradient id="ballGlow" cx="50%" cy="50%" r="50%">
      <stop offset="0%" stop-color="#ff3333" />
      <stop offset="100%" stop-color="#800000" />
    </radialGradient>

    <style>
      .title { font-family: 'Segoe UI', Arial, sans-serif; font-weight: 800; font-size: 22px; fill: #ffffff; letter-spacing: 2px; }
      .tech-name { font-family: 'Segoe UI', Arial, sans-serif; font-weight: 700; font-size: 16px; fill: #ffffff; text-transform: uppercase; }
      .tech-sub { font-family: 'Segoe UI', Arial, sans-serif; font-weight: 400; font-size: 12px; fill: #aaa; text-transform: uppercase; }
      .speed { font-family: 'Courier New', Courier, monospace; font-weight: bold; font-size: 20px; fill: #4caf50; }
      
      @keyframes bowlPath {
        0% { transform: translateX(0) scale(1); opacity: 0; }
        20% { opacity: 1; }
        100% { transform: translateX(-150px) scale(0.6); opacity: 0; }
      }
      .anim-ball { animation: bowlPath 2s infinite ease-out; }
    </style>
  </defs>

  <!-- Broadcast Graphic Background -->
  <rect x="50" y="20" width="900" height="210" fill="url(#bgGrad)" rx="10" stroke="#4caf50" stroke-width="3" />
  
  <!-- Header -->
  <rect x="50" y="20" width="300" height="40" fill="#4caf50" rx="10" />
  <rect x="50" y="40" width="300" height="20" fill="#4caf50" />
  <text x="70" y="47" class="title" fill="#020111">BOWLING ARSENAL</text>
  <text x="370" y="47" class="title" fill="#fff" font-size="16">(BACKEND &amp; CLOUD)</text>

  <!-- Arsenal Grid -->
  <g transform="translate(80, 80)">
    
    <!-- Item 1: Backend Framework -->
    <g transform="translate(0, 0)">
      <circle cx="15" cy="15" r="10" fill="url(#ballGlow)" />
      <circle cx="25" cy="15" r="10" fill="url(#ballGlow)" class="anim-ball" style="animation-delay: 0s" />
      <text x="40" y="15" class="tech-name">JAVA</text>
      <text x="40" y="32" class="tech-sub">YORKER (FRAMEWORK)</text>
      <text x="180" y="20" class="speed">150 KPH</text>
    </g>

    <!-- Item 2: Database -->
    <g transform="translate(300, 0)">
      <circle cx="15" cy="15" r="10" fill="url(#ballGlow)" />
      <circle cx="25" cy="15" r="10" fill="url(#ballGlow)" class="anim-ball" style="animation-delay: 0.5s" />
      <text x="40" y="15" class="tech-name">POWERSHELL</text>
      <text x="40" y="32" class="tech-sub">BOUNCER (DATABASE)</text>
      <text x="180" y="20" class="speed">148 KPH</text>
    </g>

    <!-- Item 3: Cloud -->
    <g transform="translate(600, 0)">
      <circle cx="15" cy="15" r="10" fill="url(#ballGlow)" />
      <circle cx="25" cy="15" r="10" fill="url(#ballGlow)" class="anim-ball" style="animation-delay: 1.0s" />
      <text x="40" y="15" class="tech-name">SHELL</text>
      <text x="40" y="32" class="tech-sub">GOOGLY (CLOUD)</text>
      <text x="180" y="20" class="speed">145 KPH</text>
    </g>

    <!-- Item 4: DevOps -->
    <g transform="translate(0, 70)">
      <circle cx="15" cy="15" r="10" fill="url(#ballGlow)" />
      <circle cx="25" cy="15" r="10" fill="url(#ballGlow)" class="anim-ball" style="animation-delay: 1.5s" />
      <text x="40" y="15" class="tech-name">DOCKERFILE</text>
      <text x="40" y="32" class="tech-sub">INSWING (DEVOPS)</text>
      <text x="180" y="20" class="speed">142 KPH</text>
    </g>

    <!-- Item 5: AI/ML -->
    <g transform="translate(300, 70)">
      <circle cx="15" cy="15" r="10" fill="url(#ballGlow)" />
      <circle cx="25" cy="15" r="10" fill="url(#ballGlow)" class="anim-ball" style="animation-delay: 2.0s" />
      <text x="40" y="15" class="tech-name">BATCHFILE</text>
      <text x="40" y="32" class="tech-sub">DOOSRA (AI/ML)</text>
      <text x="180" y="20" class="speed">138 KPH</text>
    </g>

    <!-- Item 6: Tools -->
    <g transform="translate(600, 70)">
      <circle cx="15" cy="15" r="10" fill="url(#ballGlow)" />
      <circle cx="25" cy="15" r="10" fill="url(#ballGlow)" class="anim-ball" style="animation-delay: 2.5s" />
      <text x="40" y="15" class="tech-name">DEV TOOL</text>
      <text x="40" y="32" class="tech-sub">SLOWER BALL (TOOLS)</text>
      <text x="180" y="20" class="speed">115 KPH</text>
    </g>

  </g>
</svg>
